<svg xmlns="http://www.w3.org/2000/svg" viewBox="0 0 400 300" data-imageid="chat-flatline" imageName="Chat" class="illustrations_image" style="width: 151px;"><g id="_67_chat" data-name="#67_chat"><path d="M300,233s-5.67-11.33-6-18.57-5.35-45.73-9.44-58.64-20.46-30.62-35.88-41.23c-3.38-2.32-18.89-11-18.89-11l-2.52,45.63s22.35,26.44,23.61,37.77-5.33,31.46-1,39c7.64,13.44,3.12,6.7,12.28,20Z" fill="#fff"/><path d="M262.17,246.47a.49.49,0,0,1-.41-.22L260,243.63c-4.52-6.57-4.52-6.57-6.15-9.59-.8-1.47-2-3.7-4.35-7.84-2.57-4.53-1.43-13-.21-22,.84-6.16,1.7-12.53,1.18-17.23-1.23-11.05-23.27-37.24-23.49-37.5a.57.57,0,0,1-.12-.35l2.52-45.64a.5.5,0,0,1,.26-.41.46.46,0,0,1,.48,0c.64.36,15.58,8.74,18.93,11,14.21,9.77,31.68,27.63,36.07,41.49,4.13,13,9.14,51.27,9.47,58.77.31,7.05,5.87,18.26,5.93,18.37a.49.49,0,0,1,0,.41.48.48,0,0,1-.3.29l-37.85,13A.41.41,0,0,1,262.17,246.47ZM227.82,149c2,2.39,22.37,26.86,23.6,37.89.53,4.82-.34,11.25-1.19,17.47-1.14,8.42-2.32,17.12.09,21.36s3.56,6.38,4.36,7.86c1.6,3,1.6,3,6.1,9.49l1.59,2.31,36.95-12.68c-1.12-2.32-5.5-11.79-5.78-18.26-.32-7.25-5.4-45.84-9.42-58.5-3.8-12-19.14-29.6-35.69-41-2.9-2-15.08-8.87-18.14-10.6Z" fill="#231f20"/><path d="M100,233s5.67-11.33,6-18.57,5.35-45.73,9.44-58.64,20.46-30.62,35.88-41.23c3.38-2.32,18.89-11,18.89-11l2.52,45.63s-22.35,26.44-23.61,37.77,5.33,31.46,1,39c-7.64,13.44-3.12,6.7-12.28,20Z" fill="#fff"/><path d="M137.83,246.47a.41.41,0,0,1-.16,0l-37.85-13a.48.48,0,0,1-.3-.29.49.49,0,0,1,0-.41c.06-.11,5.62-11.32,5.93-18.37.33-7.5,5.34-45.74,9.47-58.77,4.39-13.86,21.86-31.72,36.07-41.49,3.35-2.3,18.29-10.68,18.93-11a.46.46,0,0,1,.48,0,.5.5,0,0,1,.26.41l2.52,45.64a.57.57,0,0,1-.12.35c-.22.26-22.26,26.45-23.49,37.5-.52,4.7.34,11.07,1.18,17.23,1.22,9,2.36,17.45-.21,22-2.35,4.14-3.55,6.37-4.35,7.84-1.63,3-1.63,3-6.15,9.59l-1.81,2.62A.49.49,0,0,1,137.83,246.47Zm-37.15-13.78,36.95,12.68,1.59-2.31c4.5-6.52,4.5-6.52,6.1-9.49.8-1.48,2-3.72,4.36-7.86s1.23-12.94.09-21.36c-.85-6.22-1.72-12.65-1.19-17.47,1.23-11,21.59-35.5,23.6-37.89l-2.47-44.64c-3.06,1.73-15.24,8.61-18.14,10.6-16.55,11.38-31.89,29-35.69,41-4,12.66-9.1,51.25-9.42,58.5C106.18,220.9,101.8,230.37,100.68,232.69Z" fill="#231f20"/><rect x="158.66" y="38.06" width="82.67" height="164.8" rx="5.27" fill="#fff"/><path d="M236.07,203.36H163.93a5.78,5.78,0,0,1-5.77-5.77V43.33a5.78,5.78,0,0,1,5.77-5.77h72.14a5.78,5.78,0,0,1,5.77,5.77V197.59A5.78,5.78,0,0,1,236.07,203.36ZM163.93,38.56a4.78,4.78,0,0,0-4.77,4.77V197.59a4.78,4.78,0,0,0,4.77,4.77h72.14a4.78,4.78,0,0,0,4.77-4.77V43.33a4.78,4.78,0,0,0-4.77-4.77Z" fill="#231f20"/><rect x="163" y="52.97" width="73.99" height="126.83" fill="#fff"/><path d="M237,180.3H163a.51.51,0,0,1-.5-.5V53a.5.5,0,0,1,.5-.5h74a.5.5,0,0,1,.5.5V179.8A.51.51,0,0,1,237,180.3Zm-73.5-1h73V53.47h-73Z" fill="#231f20"/><rect x="189.72" y="185.96" width="20.55" height="11.86" rx="3.24" fill="#fff"/><path d="M207,198.33H193a3.75,3.75,0,0,1-3.74-3.74v-5.38a3.75,3.75,0,0,1,3.74-3.75H207a3.75,3.75,0,0,1,3.74,3.75v5.38A3.75,3.75,0,0,1,207,198.33ZM193,186.46a2.75,2.75,0,0,0-2.74,2.75v5.38a2.74,2.74,0,0,0,2.74,2.74H207a2.74,2.74,0,0,0,2.74-2.74v-5.38a2.75,2.75,0,0,0-2.74-2.75Z" fill="#e6e7e8"/><path d="M207.47,45.7H186.4a.51.51,0,0,1-.5-.5.5.5,0,0,1,.5-.5h21.07a.5.5,0,0,1,.5.5A.5.5,0,0,1,207.47,45.7Z" fill="#e6e7e8"/><path d="M213.25,45.7h-2.82a.5.5,0,0,1-.5-.5.5.5,0,0,1,.5-.5h2.82a.5.5,0,0,1,.5.5A.5.5,0,0,1,213.25,45.7Z" fill="#e6e7e8"/><path d="M237,60.63H163a.51.51,0,0,1-.5-.5.5.5,0,0,1,.5-.5h74a.5.5,0,0,1,.5.5A.51.51,0,0,1,237,60.63Z" fill="#231f20"/><path d="M233.74,65.77h-4.09v0l-.18,0H199.86A1.92,1.92,0,0,0,198,67.68v7.48a1.92,1.92,0,0,0,1.91,1.91h29.61a1.91,1.91,0,0,0,1.91-1.91v-7Z" fill="#e6e7e8"/><path d="M170.41,102.83h4.09v0l.18,0h29.61a1.91,1.91,0,0,1,1.91,1.91v11.64a1.9,1.9,0,0,1-1.91,1.91H174.68a1.91,1.91,0,0,1-1.91-1.91V105.19Z" fill="#e6e7e8"/><path d="M170.41,140.39h4.09v0l.18,0h34.9a1.91,1.91,0,0,1,1.9,1.91v16.13a1.91,1.91,0,0,1-1.9,1.91h-34.9a1.92,1.92,0,0,1-1.91-1.91V142.75Z" fill="#e6e7e8"/><path d="M233.74,123.05h-4.09v0l-.18,0H199.86A1.91,1.91,0,0,0,198,125v7.47a1.91,1.91,0,0,0,1.91,1.91h29.61a1.9,1.9,0,0,0,1.91-1.91v-7Z" fill="#e6e7e8"/><rect x="189.68" y="79.69" width="41.7" height="17.63" rx="2.64" fill="#e6e7e8"/><rect x="167.17" y="166.79" width="65.66" height="8.3" rx="4.15" fill="#fff"/><path d="M228.68,175.59H171.32a4.65,4.65,0,0,1,0-9.3h57.36a4.65,4.65,0,0,1,0,9.3Zm-57.36-8.3a3.65,3.65,0,0,0,0,7.3h57.36a3.65,3.65,0,0,0,0-7.3Z" fill="#e6e7e8"/><path d="M142.81,238.72s16.34-13.46,17.6-28.89-1.26-31.39.63-34.86S176.1,152.63,179,147.59c3.78-6.61-1.89-12.59-6-10.07s-20.14,11.64-28.64,23.92a60.7,60.7,0,0,0-9.44,14.79" fill="#fff"/><path d="M142.81,239.22a.52.52,0,0,1-.39-.19.5.5,0,0,1,.07-.7c.16-.13,16.2-13.51,17.42-28.54a180.51,180.51,0,0,0,.1-21.39c-.26-6.84-.44-11.77.59-13.67.92-1.68,4.46-6.94,8.2-12.5,4.06-6,8.27-12.29,9.75-14.89,2-3.57,1.15-6.91-.64-8.64a3.72,3.72,0,0,0-4.65-.76l-1.09.67c-5.36,3.24-19.59,11.83-27.4,23.11a61.3,61.3,0,0,0-9.4,14.72.51.51,0,0,1-.66.25.52.52,0,0,1-.25-.67A61.32,61.32,0,0,1,144,161.1c7.88-11.4,22.24-20.08,27.65-23.34l1.09-.67a4.72,4.72,0,0,1,5.86.89c2.07,2,3.12,5.82.82,9.86-1.5,2.63-5.72,8.89-9.79,14.95-3.73,5.54-7.25,10.78-8.15,12.42s-.71,6.73-.47,13.15a182.54,182.54,0,0,1-.1,21.51c-1.26,15.46-17.62,29.1-17.78,29.23A.51.51,0,0,1,142.81,239.22Z" fill="#231f20"/><path d="M146.93,261.94a35,35,0,0,0,.89-6.82c0-2.9-3-7.06-3-7.06l1.82-9.34s-47-18.33-48.89-15.81-5.67,15.81-5.67,15.81-6,3.55-7.87,7.25c-1.09,2.13-3,9.83-4.45,16Z" fill="#68e1fd" class="target-color"/><path d="M257.19,238.72s-16.34-13.46-17.6-28.89,1.26-31.39-.63-34.86S223.9,152.63,221,147.59c-3.78-6.61,1.89-12.59,6-10.07s20.14,11.64,28.64,23.92a60.7,60.7,0,0,1,9.44,14.79" fill="#fff"/><path d="M257.19,239.22a.51.51,0,0,1-.32-.12c-.16-.13-16.52-13.77-17.78-29.23a182.54,182.54,0,0,1-.1-21.51c.24-6.42.43-11.49-.47-13.15s-4.42-6.88-8.15-12.42c-4.07-6.06-8.29-12.32-9.79-14.95-2.3-4-1.25-7.86.82-9.86a4.72,4.72,0,0,1,5.86-.89l1.09.67c5.41,3.26,19.77,11.94,27.7,23.4h0A61.65,61.65,0,0,1,265.54,176a.52.52,0,0,1-.25.67.51.51,0,0,1-.66-.25,61.12,61.12,0,0,0-9.35-14.66c-7.86-11.34-22.09-19.93-27.45-23.17l-1.09-.67a3.72,3.72,0,0,0-4.65.76c-1.79,1.73-2.68,5.07-.64,8.64,1.48,2.6,5.69,8.85,9.75,14.89,3.74,5.56,7.28,10.82,8.2,12.5,1,1.9.85,6.83.59,13.67a180.51,180.51,0,0,0,.1,21.39c1.22,15,17.26,28.41,17.42,28.54a.5.5,0,0,1,.07.7A.52.52,0,0,1,257.19,239.22Z" fill="#231f20"/><line x1="97.19" y1="238.72" x2="140" y2="251.66" fill="#fff"/><path d="M140,252.16l-.15,0-42.8-12.95a.49.49,0,0,1-.34-.62.51.51,0,0,1,.63-.33l42.8,12.94a.5.5,0,0,1,.34.62A.51.51,0,0,1,140,252.16Z" fill="#231f20"/><path d="M253.07,261.94h67.14c-1.44-6.14-3.36-13.84-4.45-16-1.89-3.7-7.87-7.25-7.87-7.25s-3.78-13.29-5.67-15.81-48.89,15.81-48.89,15.81l1.82,9.34s-3,4.16-3,7.06A35,35,0,0,0,253.07,261.94Z" fill="#68e1fd" class="target-color"/><path d="M300,240l-38.58,11.67" fill="#fff"/><path d="M261.44,252.16a.51.51,0,0,1-.48-.36.5.5,0,0,1,.34-.62l38.58-11.67a.5.5,0,0,1,.28,1l-38.58,11.67Z" fill="#231f20"/><rect x="95.65" y="63.62" width="80.93" height="45.15" rx="7.49" fill="#68e1fd" class="target-color"/><circle cx="116.57" cy="84.39" r="14.14" fill="#fff"/><path d="M110.72,76.85a13.92,13.92,0,0,0,.71,5.74,3.76,3.76,0,0,0,.81,1.45,3.26,3.26,0,0,0,1.71.74,16.53,16.53,0,0,0,3.06.3,4.55,4.55,0,0,0,3-.8c1-.84.89-1.89,1.34-3,.35-.85,1.29-1.12,1.62-2.05a3.39,3.39,0,0,0,.11-1.49,6.33,6.33,0,0,0-1.57-3.66A6.25,6.25,0,0,0,117,72.43c-1.54,0-3.23-.4-3.39,1.53a1.85,1.85,0,0,0-1.64.33A3.89,3.89,0,0,0,110.72,76.85Z" fill="#fff"/><path d="M117.13,85.6H117a17.62,17.62,0,0,1-3.15-.32,3.66,3.66,0,0,1-2-.87,4,4,0,0,1-.94-1.66,14.37,14.37,0,0,1-.73-6h0a4.35,4.35,0,0,1,1.44-2.89,2.47,2.47,0,0,1,1.53-.51c.42-1.6,2-1.54,3.2-1.48l.63,0a6.64,6.64,0,0,1,4.91,1.79,6.86,6.86,0,0,1,1.7,4,3.89,3.89,0,0,1-.13,1.72,3.17,3.17,0,0,1-1,1.29,2.37,2.37,0,0,0-.64.77,7.86,7.86,0,0,0-.29,1,3.7,3.7,0,0,1-1.2,2.24A5,5,0,0,1,117.13,85.6Zm-5.89-8.68a13.11,13.11,0,0,0,.68,5.5,3.17,3.17,0,0,0,.68,1.25,2.73,2.73,0,0,0,1.44.6,16.53,16.53,0,0,0,3,.3,4.3,4.3,0,0,0,2.7-.69,2.68,2.68,0,0,0,.85-1.68,8,8,0,0,1,.34-1.13,3.06,3.06,0,0,1,.91-1.15,2.16,2.16,0,0,0,.7-.88,2.86,2.86,0,0,0,.09-1.26,5.86,5.86,0,0,0-1.43-3.37A5.92,5.92,0,0,0,117,73l-.67,0c-1.56-.07-2.12,0-2.21,1.07a.51.51,0,0,1-.22.39.53.53,0,0,1-.44.07,1.3,1.3,0,0,0-1.16.23,3.32,3.32,0,0,0-1.06,2.23Z" fill="#231f20"/><path d="M115.52,102.29l-2-14.67,7,.94L123,102.29l6-.54c-.16-7.07-2.74-13.06-4.58-14.44-2.21-1.64-10.7-1.37-10.7-1.37s-6.76,2.87-8.51,6.1c-.76,1.4-1.22,5.34-1,10.25Z" fill="#68e1fd" class="target-color"/><path d="M120.55,84.4l.69,3.8a3.33,3.33,0,0,1-3.45,2.16A5.1,5.1,0,0,1,114.14,88l-.72-7s1.74-1.17.77-5.1a12.34,12.34,0,0,0,6.53.21s1.58,4.2,1.48,6.15A2.11,2.11,0,0,1,120.55,84.4Z" fill="#fff"/><path d="M118.24,90.91a4.92,4.92,0,0,1-.52,0,5.61,5.61,0,0,1-4-2.68.41.41,0,0,1-.05-.19l-.72-7a.5.5,0,0,1,.23-.47s1.4-1.09.55-4.56a.52.52,0,0,1,.16-.5.5.5,0,0,1,.52-.1,12,12,0,0,0,6.23.19.52.52,0,0,1,.6.32c.07.18,1.62,4.32,1.52,6.36a2.7,2.7,0,0,1-1.58,2.5l.61,3.36a.63.63,0,0,1,0,.27A3.83,3.83,0,0,1,118.24,90.91Zm-3.6-3.13a4.54,4.54,0,0,0,3.22,2.07,2.74,2.74,0,0,0,2.84-1.71L120,84.49a.57.57,0,0,1,.09-.4.52.52,0,0,1,.34-.2,1.59,1.59,0,0,0,1.22-1.69c.07-1.48-.92-4.44-1.3-5.53a13.12,13.12,0,0,1-5.52-.08c.46,2.76-.44,4.09-.91,4.58Z" fill="#231f20"/><path d="M117.75,78.78s1.39,2,1.07,2.41-1.25.13-1.25.13" fill="#fff"/><path d="M118.17,81.89a3.27,3.27,0,0,1-.72-.09.49.49,0,0,1-.36-.6.51.51,0,0,1,.6-.37,1.89,1.89,0,0,0,.65,0,9.49,9.49,0,0,0-1-1.82.49.49,0,0,1,.13-.69.5.5,0,0,1,.7.13c1.61,2.37,1.19,2.83,1,3A1.4,1.4,0,0,1,118.17,81.89Zm.2-.86h0Z" fill="#231f20"/><ellipse cx="116.44" cy="78.41" rx="0.24" ry="0.56" transform="translate(-2.36 3.62) rotate(-1.76)" fill="#231f20"/><ellipse cx="119.66" cy="78.2" rx="0.24" ry="0.56" transform="translate(-2.35 3.72) rotate(-1.76)" fill="#231f20"/><path d="M114.92,79.78a3.46,3.46,0,0,0-1-.88,1.09,1.09,0,0,0-.66-.22,1,1,0,0,0-.53.21,2.06,2.06,0,0,0-.83,1.43,1.58,1.58,0,0,0,.11.78,1.74,1.74,0,0,0,.86.85,4.79,4.79,0,0,0,1.18.38" fill="#fff"/><path d="M114.1,82.85l-.12,0a5.11,5.11,0,0,1-1.29-.42,2.28,2.28,0,0,1-1.11-1.11,2.07,2.07,0,0,1-.14-1,2.57,2.57,0,0,1,1-1.8,1.41,1.41,0,0,1,1.76,0,3.92,3.92,0,0,1,1.09,1,.51.51,0,1,1-.83.6,3.17,3.17,0,0,0-.8-.75.75.75,0,0,0-.36-.14.53.53,0,0,0-.26.12,1.51,1.51,0,0,0-.61,1.06,1.13,1.13,0,0,0,.06.53,1.28,1.28,0,0,0,.62.59,5.15,5.15,0,0,0,1.07.34.52.52,0,0,1-.12,1Z" fill="#231f20"/><path d="M120.07,82.42l-3.37.33a1.92,1.92,0,0,0,1.58.88A2.88,2.88,0,0,0,120.07,82.42Z" fill="#231f20"/><path d="M168.62,78.05h-32.8a.5.5,0,0,1-.5-.5.5.5,0,0,1,.5-.5h32.8a.5.5,0,0,1,.5.5A.5.5,0,0,1,168.62,78.05Z" fill="#fff"/><path d="M168.62,86.69h-32.8a.5.5,0,0,1-.5-.5.5.5,0,0,1,.5-.5h32.8a.5.5,0,0,1,.5.5A.5.5,0,0,1,168.62,86.69Z" fill="#fff"/><path d="M160.77,95.34h-25a.5.5,0,0,1-.5-.5.5.5,0,0,1,.5-.5h25a.5.5,0,0,1,.5.5A.5.5,0,0,1,160.77,95.34Z" fill="#fff"/><path d="M169.09,108.77s15.45.23,15.22,0-12.22-11-12.22-11Z" fill="#68e1fd" class="target-color"/><rect x="222.19" y="44.37" width="80.93" height="45.15" rx="7.49" transform="translate(525.31 133.9) rotate(-180)" fill="#68e1fd" class="target-color"/><circle cx="243.77" cy="65.14" r="14.14" fill="#fff"/><path d="M295.82,58.8H263a.5.5,0,0,1,0-1h32.8a.5.5,0,0,1,0,1Z" fill="#fff"/><path d="M295.82,67.45H263a.5.5,0,0,1-.5-.5.5.5,0,0,1,.5-.5h32.8a.5.5,0,0,1,.5.5A.5.5,0,0,1,295.82,67.45Z" fill="#fff"/><path d="M288,76.1H263a.5.5,0,0,1-.5-.5.5.5,0,0,1,.5-.5h25a.5.5,0,0,1,.5.5A.5.5,0,0,1,288,76.1Z" fill="#fff"/><path d="M229.68,89.52s-15.44.23-15.22,0,12.22-11,12.22-11Z" fill="#68e1fd" class="target-color"/><path d="M241,53.5l.38,0a8.08,8.08,0,0,1,1.73.58,3.51,3.51,0,0,1,3.16-.14c3.35,1.2,9,8.41,5.8,12A4.56,4.56,0,0,1,249.38,67a37.32,37.32,0,0,1-8.44.45,7,7,0,0,1-3-.67c-2.77-1.51-1.14-7.46-.09-9.76a12,12,0,0,1,1.8-3A2.29,2.29,0,0,1,241,53.5Z" fill="#fff"/><path d="M243.2,68c-.76,0-1.53,0-2.29-.07a7.58,7.58,0,0,1-3.16-.73c-3.05-1.66-1.5-7.69-.28-10.35a11.33,11.33,0,0,1,1.88-3.1,2.77,2.77,0,0,1,1.63-.7h0l.43,0a8.44,8.44,0,0,1,1.71.52,4.17,4.17,0,0,1,3.34,0c2.45.88,6,4.65,6.86,8.21a4.69,4.69,0,0,1-.88,4.48,5,5,0,0,1-3,1.29A37.31,37.31,0,0,1,243.2,68Zm-2.12-14a1.85,1.85,0,0,0-1.08.43,11,11,0,0,0-1.7,2.84c-1.18,2.57-2.43,7.9-.11,9.17A6.57,6.57,0,0,0,241,67a35.82,35.82,0,0,0,8.34-.44,4.16,4.16,0,0,0,2.46-1,3.73,3.73,0,0,0,.67-3.64c-.8-3.23-4.09-6.79-6.28-7.57a3.24,3.24,0,0,0-2.75.08.45.45,0,0,1-.55,0,13.11,13.11,0,0,0-1.47-.48l-.3,0Z" fill="#231f20"/><path d="M238.93,80.1c.41-4.43.72-10,.72-10.1l6.19.25-.44,9.85L257.33,78a32.72,32.72,0,0,0-3.64-6.12c-2.79-3.75-8.9-3.78-9.06-3.78.16,0,2.92,0-5-.45-8.57-.49-11.12,9.72-11.12,9.72l1.22.63Z" fill="#68e1fd" class="target-color"/><path d="M240.53,66.5s-.7,3.84-.7,3.84a2,2,0,0,0,2.43,2,5,5,0,0,0,3.67-2.14l.78-4.76a49.56,49.56,0,0,0,.87-5.39c-1.86.6-4.15-1.75-4.73-3.27a2.87,2.87,0,0,0,.59,2.75,3.51,3.51,0,0,1-2.19-2.27,12,12,0,0,0-1.54,1.38,6.58,6.58,0,0,0-.93,1.9c-.36,1.18-.67,3-.07,4.12A3.42,3.42,0,0,0,240.53,66.5Z" fill="#fff"/><path d="M242,72.85a2.57,2.57,0,0,1-1.83-.65,2.72,2.72,0,0,1-.77-1.87c0-.06.47-2.6.65-3.56a4.35,4.35,0,0,1-1.71-1.85c-.75-1.45-.23-3.6,0-4.46a7,7,0,0,1,1-2s1.48-1.64,2-1.56a.45.45,0,0,1,.37.32,2.9,2.9,0,0,0,.63,1.12,3.26,3.26,0,0,1,.1-1.61.46.46,0,0,1,.42-.32.47.47,0,0,1,.44.3c.5,1.32,2.61,3.5,4.16,3a.45.45,0,0,1,.42.07.46.46,0,0,1,.18.38,28.19,28.19,0,0,1-.56,3.76c-.11.57-.22,1.13-.31,1.69l-.79,4.75a.49.49,0,0,1-.06.17,5.37,5.37,0,0,1-4,2.35Zm-1.69-2.43a1.81,1.81,0,0,0,.49,1.12,1.88,1.88,0,0,0,1.46.39,4.44,4.44,0,0,0,3.26-1.85l.77-4.66c.1-.56.21-1.14.32-1.71.2-1,.4-2.05.5-3.06a5.16,5.16,0,0,1-3.77-2.19,2.4,2.4,0,0,0,.47.82.44.44,0,0,1,0,.55.45.45,0,0,1-.53.19,4.07,4.07,0,0,1-2.24-2c-.38.34-.88.82-1,.93a6.19,6.19,0,0,0-.85,1.75,5.46,5.46,0,0,0-.1,3.78,3,3,0,0,0,1.54,1.56.45.45,0,0,1,.32.52c0,.07-.68,3.69-.7,3.84Z" fill="#231f20"/><path d="M246.56,62.74a1.29,1.29,0,0,1,.58-.64,2.38,2.38,0,0,1,.78-.25,1,1,0,0,1,.45,0,.78.78,0,0,1,.28.16,1,1,0,0,1,.41.6,1.23,1.23,0,0,1-.07.6,2.34,2.34,0,0,1-.26.61,1.67,1.67,0,0,1-1,.73,1.72,1.72,0,0,1-1.27-.23" fill="#fff"/><path d="M247.33,65a2.05,2.05,0,0,1-1.13-.34.4.4,0,1,1,.43-.67,1.26,1.26,0,0,0,1.76-.38,1.62,1.62,0,0,0,.22-.51.83.83,0,0,0,.06-.4.63.63,0,0,0-.27-.37.32.32,0,0,0-.14-.08.63.63,0,0,0-.27,0,2.14,2.14,0,0,0-.66.2,1,1,0,0,0-.41.46.4.4,0,1,1-.73-.31,1.8,1.8,0,0,1,.75-.84,2.61,2.61,0,0,1,.91-.29,1.34,1.34,0,0,1,.63,0,1.3,1.3,0,0,1,.41.22,1.49,1.49,0,0,1,.57.85,1.69,1.69,0,0,1-.09.79,2.54,2.54,0,0,1-.3.7,2.11,2.11,0,0,1-1.74,1Z" fill="#231f20"/><path d="M241.68,60.76s-1.61,1.57-1.38,2,1.09.32,1.09.32" fill="#fff"/><path d="M241.27,63.48a1.61,1.61,0,0,1-1.35-.54c-.12-.2-.42-.68,1.45-2.5a.44.44,0,0,1,.63,0,.45.45,0,0,1,0,.63,7.92,7.92,0,0,0-1.23,1.44,1.86,1.86,0,0,0,.61.07.45.45,0,0,1,0,.89Z" fill="#231f20"/><ellipse cx="243.72" cy="61.26" rx="0.43" ry="0.31" transform="translate(85.89 256.82) rotate(-65.2)" fill="#231f20"/><ellipse cx="240.31" cy="60.66" rx="0.43" ry="0.31" transform="translate(84.46 253.38) rotate(-65.2)" fill="#231f20"/><path d="M240,63.78l2.77.17a1.22,1.22,0,0,1-1.49,1.19A1.4,1.4,0,0,1,240,63.78Z" fill="#231f20"/></g></svg>