<?xml version="1.0" standalone="no"?>
<!DOCTYPE svg PUBLIC "-//W3C//DTD SVG 20010904//EN"
 "http://www.w3.org/TR/2001/REC-SVG-20010904/DTD/svg10.dtd">
<svg version="1.0" xmlns="http://www.w3.org/2000/svg"
 width="1280.000000pt" height="920.000000pt" viewBox="0 0 1280.000000 920.000000"
 preserveAspectRatio="xMidYMid meet">
<metadata>
Created by potrace 1.15, written by Peter Selinger 2001-2017
</metadata>
<g transform="translate(0.000000,920.000000) scale(0.100000,-0.100000)"
fill="#000000" stroke="none">
<path d="M5960 9169 l0 -32 220 5 c122 3 219 4 218 2 -2 -2 -100 -41 -218 -87
l-215 -85 -3 -36 -3 -36 275 0 276 0 0 25 0 25 -227 1 c-144 0 -221 4 -208 9
11 5 112 45 225 89 l205 80 3 35 3 36 -275 0 -276 0 0 -31z"/>
<path d="M6111 8799 c-68 -12 -109 -35 -138 -79 -48 -70 -18 -155 72 -200 46
-23 60 -25 195 -25 131 0 149 2 192 23 25 13 54 35 64 50 24 36 24 120 1 155
-46 70 -218 104 -386 76z m269 -69 c61 -17 80 -37 80 -80 0 -74 -84 -106 -263
-98 -80 3 -112 9 -138 24 -64 37 -71 102 -16 139 49 32 247 41 337 15z"/>
<path d="M1476 8385 c-54 -19 -92 -59 -105 -110 -6 -24 -11 -94 -11 -154 l0
-111 375 0 375 0 0 40 0 40 -170 0 -170 0 0 78 c1 120 20 133 205 141 l130 6
3 41 3 41 -113 -4 c-155 -5 -211 -17 -242 -53 l-24 -30 -34 34 c-53 53 -142
70 -222 41z m184 -103 c30 -30 44 -88 38 -152 l-3 -35 -130 0 -130 0 -3 60
c-4 76 3 101 35 131 22 21 36 24 95 24 63 0 72 -3 98 -28z"/>
<path d="M5960 8370 l0 -30 275 0 275 0 0 30 0 30 -275 0 -275 0 0 -30z"/>
<path d="M6300 8249 c-39 -16 -69 -48 -107 -117 -40 -72 -64 -92 -111 -92 -40
0 -82 38 -82 75 0 31 41 75 70 75 16 0 20 6 20 30 0 24 -4 30 -22 30 -37 0
-88 -38 -105 -77 -43 -104 32 -203 144 -190 59 6 89 29 121 90 42 80 92 127
135 127 53 0 85 -18 97 -56 15 -45 -4 -83 -52 -107 -31 -15 -38 -24 -38 -47 0
-26 2 -27 33 -21 77 18 111 62 111 147 0 59 -19 95 -67 124 -35 22 -105 26
-147 9z"/>
<path d="M2320 7989 l0 -40 155 3 c85 2 151 0 147 -3 -4 -3 -73 -30 -154 -60
l-148 -54 0 -47 0 -48 235 0 235 0 0 35 0 35 -167 2 -168 3 168 59 167 60 0
48 0 48 -235 0 -235 0 0 -41z"/>
<path d="M2040 7781 l0 -141 -145 0 -145 0 0 125 0 125 -35 0 -35 0 0 -125 0
-125 -125 0 -125 0 0 130 0 130 -35 0 -35 0 0 -170 0 -170 375 0 375 0 0 175
c0 133 -3 175 -12 175 -7 0 -23 3 -35 6 l-23 6 0 -141z"/>
<path d="M6290 7888 c-33 -17 -53 -37 -77 -78 -56 -99 -79 -120 -128 -120 -35
0 -48 5 -64 26 -12 15 -21 33 -21 40 0 31 25 64 56 74 29 10 34 16 34 42 0 28
-2 30 -27 23 -114 -28 -150 -150 -68 -232 30 -30 38 -33 93 -33 75 0 106 23
158 116 20 36 48 73 62 82 35 23 104 22 130 -2 49 -44 31 -124 -33 -147 -29
-11 -35 -18 -35 -42 0 -28 2 -29 32 -23 76 15 113 64 112 147 -1 91 -41 135
-130 145 -39 4 -58 1 -94 -18z"/>
<path d="M2427 7656 c-81 -22 -123 -78 -114 -153 6 -56 28 -88 80 -115 36 -19
58 -22 157 -23 135 0 176 12 221 62 29 34 31 40 27 96 -4 53 -8 64 -40 92 -23
22 -53 37 -87 44 -68 14 -184 13 -244 -3z m263 -94 c47 -23 53 -63 14 -89 -35
-22 -213 -31 -268 -13 -65 21 -72 80 -13 105 49 22 223 20 267 -3z"/>
<path d="M9454 7585 c-53 -27 -68 -67 -72 -187 l-4 -108 276 0 276 0 0 45 0
44 -117 3 -118 3 1 39 c2 60 28 76 124 76 105 0 110 3 110 57 l0 46 -37 -7
c-21 -3 -68 -6 -104 -6 -53 0 -73 -5 -101 -24 l-36 -24 -25 26 c-33 32 -125
42 -173 17z m144 -99 c7 -7 14 -32 15 -57 l2 -44 -77 -3 -78 -3 0 36 c0 45 14
73 43 85 27 12 77 4 95 -14z"/>
<path d="M6458 7463 l-3 -98 -102 -3 -103 -3 0 91 0 90 -30 0 -30 0 0 -90 0
-90 -90 0 -90 0 0 95 c0 95 0 95 -25 95 l-25 0 0 -125 0 -125 275 0 275 0 0
130 0 130 -25 0 c-24 0 -24 -1 -27 -97z"/>
<path d="M1590 7429 c-88 -14 -159 -56 -195 -113 -28 -47 -30 -56 -34 -173
l-3 -123 376 0 376 0 0 103 c0 56 -5 119 -11 140 -13 48 -61 102 -112 129 -81
41 -265 58 -397 37z m310 -94 c100 -26 140 -77 140 -178 l0 -57 -302 2 -303 3
-3 29 c-12 99 29 166 118 196 70 24 267 27 350 5z"/>
<path d="M10120 7370 l0 -60 263 -1 c145 0 251 -4 237 -9 -30 -9 -361 -129
-442 -160 l-58 -21 0 -75 0 -74 385 0 385 0 0 61 0 60 -275 -3 c-224 -2 -270
-1 -248 9 16 7 139 52 276 99 l247 87 0 74 0 73 -385 0 -385 0 0 -60z"/>
<path d="M2320 7250 l0 -40 235 0 235 0 0 40 0 40 -235 0 -235 0 0 -40z"/>
<path d="M6400 7210 c-105 -5 -141 -16 -158 -46 -7 -13 -13 -11 -40 15 -27 28
-37 31 -92 31 -118 0 -150 -40 -150 -190 l0 -90 275 0 275 0 0 30 0 30 -125 0
-125 0 0 58 c0 86 15 96 142 100 103 4 113 9 106 49 -3 16 -12 18 -108 13z
m-225 -74 c14 -10 21 -31 25 -75 3 -34 4 -64 1 -66 -2 -3 -46 -5 -98 -5 l-93
0 0 54 c0 78 25 106 94 106 29 0 61 -6 71 -14z"/>
<path d="M9380 7145 l0 -45 275 0 275 0 0 45 0 45 -275 0 -275 0 0 -45z"/>
<path d="M2604 7136 c-35 -15 -70 -58 -103 -124 -26 -52 -60 -70 -97 -54 -20
10 -25 18 -22 44 3 30 13 40 51 52 12 4 17 16 17 40 0 44 -9 49 -56 34 -73
-24 -105 -115 -69 -192 20 -42 63 -66 118 -66 55 0 97 31 129 94 29 59 67 96
98 96 42 0 62 -21 58 -60 -2 -28 -9 -38 -35 -50 -28 -13 -33 -20 -33 -52 0
-34 3 -38 26 -38 64 0 114 62 114 142 0 111 -96 177 -196 134z"/>
<path d="M9750 7014 c-80 -19 -196 -46 -258 -60 l-113 -26 3 -61 3 -61 250
-57 c138 -32 260 -58 273 -58 19 -1 22 4 22 39 0 46 -11 53 -93 65 l-47 7 0
63 0 62 68 14 67 14 3 48 c4 57 15 56 -178 11z m-42 -143 c2 -18 0 -37 -5 -40
-4 -4 -57 2 -118 14 l-110 21 100 21 c55 11 107 20 115 19 9 -1 16 -14 18 -35z"/>
<path d="M3101 6928 c-5 -18 -28 -96 -51 -173 -22 -77 -43 -146 -45 -152 -3
-8 5 -13 20 -13 20 0 26 9 42 58 l18 57 57 3 57 3 17 -61 c15 -52 20 -60 41
-60 30 0 31 -5 -35 210 -47 155 -47 155 -79 158 -27 3 -32 -1 -42 -30z m63
-90 c10 -40 20 -79 23 -85 3 -9 -9 -13 -41 -13 -29 0 -46 4 -46 12 0 22 35
158 41 158 3 0 13 -33 23 -72z"/>
<path d="M3284 6943 c3 -10 22 -85 41 -168 47 -200 42 -187 73 -183 25 3 27
10 62 152 l36 148 35 -148 c33 -143 36 -149 61 -152 24 -3 28 2 42 50 23 81
76 295 76 308 0 6 -10 10 -22 8 -23 -3 -30 -23 -74 -223 l-18 -80 -37 150
c-34 139 -38 150 -60 153 -23 3 -26 -3 -52 -110 -54 -219 -45 -212 -78 -53
-35 171 -33 165 -64 165 -21 0 -25 -4 -21 -17z"/>
<path d="M3815 6948 c-2 -7 -25 -84 -50 -172 -26 -87 -49 -165 -52 -172 -3
-10 3 -14 20 -14 23 0 28 7 43 60 l17 60 57 0 57 0 17 -60 c15 -52 20 -60 42
-60 13 0 24 3 24 8 0 4 -24 86 -53 182 l-53 175 -32 3 c-20 2 -34 -2 -37 -10z
m61 -123 c12 -41 19 -77 16 -80 -7 -6 -77 -7 -84 0 -2 3 5 41 16 84 11 44 23
78 26 75 2 -3 14 -39 26 -79z"/>
<path d="M4040 6776 l0 -186 25 0 c25 0 25 1 25 85 l0 85 43 0 c66 0 81 -16
87 -97 5 -62 7 -68 29 -71 23 -4 23 -3 19 73 -3 63 -7 80 -24 94 l-21 17 23
21 c35 31 34 100 -2 134 -22 21 -37 24 -115 27 l-89 4 0 -186z m167 132 c18
-15 17 -83 -3 -99 -9 -7 -37 -13 -62 -13 l-47 -1 -3 54 c-4 76 -1 81 54 75 26
-2 54 -9 61 -16z"/>
<path d="M4350 6775 l0 -185 105 0 c98 0 105 1 105 20 0 18 -7 20 -82 20 l-83
0 1 67 2 68 76 3 c59 2 76 6 76 17 0 12 -16 15 -73 15 -41 0 -76 2 -78 4 -2 2
-2 29 -1 60 l4 56 74 0 c67 0 74 2 74 20 0 19 -7 20 -100 20 l-100 0 0 -185z"/>
<path d="M4620 6775 c0 -178 1 -185 20 -185 19 0 20 7 21 153 l1 152 73 -152
c71 -148 75 -153 105 -153 l30 0 0 185 0 185 -26 0 -25 0 3 -145 c2 -80 1
-145 -2 -144 -3 0 -36 65 -74 145 -65 135 -72 144 -98 144 l-28 0 0 -185z"/>
<path d="M4960 6775 l0 -185 105 0 c98 0 105 1 105 20 0 18 -7 20 -82 20 l-83
0 1 67 2 68 75 3 c62 2 75 6 70 17 -4 11 -23 15 -74 15 l-69 0 0 60 0 60 75 0
c68 0 75 2 75 20 0 19 -7 20 -100 20 l-100 0 0 -185z"/>
<path d="M5253 6936 c-21 -19 -28 -33 -28 -64 0 -50 17 -69 85 -99 73 -33 90
-49 90 -89 0 -42 -23 -64 -66 -64 -36 0 -74 28 -74 55 0 9 -9 15 -25 15 -35 0
-33 -34 4 -71 26 -25 37 -29 86 -29 89 0 124 27 125 96 0 54 -15 72 -96 114
-50 25 -71 43 -78 62 -23 67 89 98 115 32 6 -16 16 -24 33 -24 23 0 24 2 14
30 -15 43 -44 60 -105 60 -40 0 -58 -5 -80 -24z"/>
<path d="M5547 6940 c-62 -49 -40 -123 50 -165 80 -38 93 -51 93 -96 0 -43
-19 -59 -69 -59 -33 0 -71 30 -71 55 0 9 -10 15 -26 15 -23 0 -25 -3 -20 -27
12 -50 49 -73 117 -73 73 0 105 19 119 68 16 59 -10 99 -93 139 -80 39 -99 68
-73 108 11 17 25 25 46 25 29 0 70 -29 70 -50 0 -5 12 -10 26 -10 22 0 24 3
19 23 -4 12 -18 32 -31 45 -34 30 -120 31 -157 2z"/>
<path d="M1475 6889 c-38 -11 -89 -64 -104 -108 -6 -19 -11 -87 -11 -152 l0
-119 375 0 375 0 0 40 0 40 -162 1 c-90 1 -166 1 -170 0 -5 0 -8 35 -8 79 0
74 2 83 25 104 32 30 64 36 185 36 124 0 130 2 130 50 l0 37 -127 -4 c-157 -6
-194 -15 -227 -54 l-26 -30 -31 35 c-45 51 -139 70 -224 45z m175 -98 c32 -23
52 -82 48 -146 l-3 -50 -130 0 -130 0 -3 64 c-3 65 9 111 34 132 38 32 139 31
184 0z"/>
<path d="M6031 6842 c-54 -29 -71 -72 -71 -174 l0 -88 275 0 275 0 0 30 0 30
-120 0 -120 0 0 56 c0 74 -23 120 -71 144 -49 25 -123 26 -168 2z m160 -71
c24 -25 29 -37 29 -80 l0 -51 -105 0 -105 0 0 51 c0 43 5 55 29 80 24 24 38
29 76 29 38 0 52 -5 76 -29z"/>
<path d="M10370 6853 c-169 -26 -247 -92 -257 -217 -5 -56 -2 -73 20 -118 47
-96 140 -137 332 -145 203 -9 332 26 399 110 26 32 31 48 34 107 2 38 -1 84
-8 105 -28 84 -108 136 -237 155 -66 9 -231 11 -283 3z m355 -158 c86 -43 86
-112 0 -155 -47 -24 -59 -25 -215 -25 -219 0 -280 21 -280 99 0 39 10 55 44
73 51 27 93 32 256 30 131 -2 161 -6 195 -22z"/>
<path d="M2320 6759 l0 -42 160 6 c88 3 160 4 160 3 0 -2 -72 -29 -160 -61
l-160 -59 0 -48 0 -48 235 0 235 0 0 40 0 39 -165 -6 c-91 -3 -165 -3 -165 0
0 3 74 31 165 63 l165 59 0 48 0 47 -235 0 -235 0 0 -41z"/>
<path d="M9484 6689 c-42 -12 -82 -53 -94 -98 -5 -20 -10 -73 -10 -118 l0 -83
275 0 275 0 0 45 0 45 -108 0 -108 0 -11 71 c-8 55 -17 77 -39 100 -42 44
-110 58 -180 38z m112 -97 c19 -12 34 -49 34 -81 l0 -31 -85 0 -85 0 0 31 c0
32 15 69 34 81 6 4 29 8 51 8 22 0 45 -4 51 -8z"/>
<path d="M6965 6531 c-18 -11 -44 -44 -64 -82 -45 -86 -58 -99 -97 -99 -44 0
-66 24 -62 69 2 28 10 40 35 56 20 13 32 28 33 43 0 25 -16 28 -55 10 -36 -16
-55 -57 -55 -119 0 -45 4 -55 35 -86 33 -33 39 -35 81 -30 56 6 78 25 116 102
43 85 54 95 103 95 53 0 75 -22 75 -78 0 -32 -6 -45 -26 -61 -15 -12 -33 -21
-40 -21 -8 0 -14 -11 -14 -25 0 -38 43 -34 86 9 32 32 34 38 34 101 0 63 -2
69 -34 101 -28 28 -41 34 -77 34 -25 0 -57 -8 -74 -19z"/>
<path d="M6460 6410 l0 -100 -105 0 -104 0 -3 88 c-3 87 -3 87 -30 90 l-28 3
0 -90 0 -91 -90 0 -90 0 0 95 c0 95 0 95 -25 95 l-25 0 0 -125 0 -125 275 0
275 0 0 124 c0 126 -3 136 -41 136 -5 0 -9 -45 -9 -100z"/>
<path d="M2320 6325 l0 -125 235 0 235 0 0 125 0 125 -35 0 -35 0 0 -85 0 -86
-67 3 -68 3 -3 78 -3 77 -34 0 -34 0 -3 -77 -3 -78 -55 0 -55 0 -3 83 -3 82
-34 0 -35 0 0 -125z"/>
<path d="M4695 6421 c-62 -38 -80 -73 -96 -185 -12 -90 2 -203 34 -265 28 -55
74 -81 142 -81 105 0 157 59 176 200 21 154 -17 292 -91 332 -46 24 -126 24
-165 -1z m115 -71 c29 -16 40 -66 40 -187 0 -131 -14 -179 -54 -189 -63 -16
-89 28 -94 157 -3 55 -1 118 2 142 11 71 56 104 106 77z"/>
<path d="M5521 6423 c-52 -26 -73 -67 -68 -136 4 -70 29 -100 128 -152 77 -40
92 -59 87 -113 -6 -74 -95 -77 -128 -4 -13 31 -17 33 -60 30 -44 -3 -45 -4
-42 -33 9 -75 74 -125 163 -125 122 0 194 83 169 194 -11 50 -51 91 -125 128
-81 41 -95 55 -95 94 0 25 7 38 26 51 23 15 29 15 52 2 14 -8 29 -25 32 -39 5
-22 12 -25 53 -28 46 -3 47 -2 47 25 0 41 -35 92 -75 109 -46 19 -122 17 -164
-3z"/>
<path d="M3010 6165 l0 -265 45 0 45 0 0 188 1 187 71 -187 70 -188 54 0 54 0
0 265 0 265 -46 0 -46 0 4 -180 c1 -99 2 -180 2 -180 -1 0 -32 81 -70 180
l-69 180 -57 0 -58 0 0 -265z"/>
<path d="M3450 6165 l0 -265 145 0 145 0 0 24 c0 13 3 31 6 40 5 14 -7 16 -95
16 l-101 0 0 80 0 80 90 0 90 0 0 40 0 40 -90 0 -90 0 0 65 0 65 89 0 89 0 4
40 4 40 -143 0 -143 0 0 -265z"/>
<path d="M3810 6165 l0 -265 50 0 50 0 0 115 0 115 35 0 c25 0 44 -8 60 -25
22 -21 25 -33 25 -99 0 -101 3 -106 59 -106 l46 0 -5 104 c-5 101 -13 127 -48
149 -9 6 -5 16 17 37 63 63 47 186 -30 226 -20 10 -62 14 -144 14 l-115 0 0
-265z m212 165 c43 -53 11 -115 -64 -126 l-48 -6 0 82 0 83 47 -6 c32 -3 53
-12 65 -27z"/>
<path d="M4235 6193 c34 -131 65 -250 69 -265 6 -27 9 -28 65 -28 l59 0 16 63
c9 34 41 152 70 262 l53 200 -50 3 c-27 2 -51 2 -53 0 -2 -2 -22 -94 -46 -205
-23 -111 -46 -200 -49 -197 -4 2 -10 27 -14 56 -3 29 -21 118 -39 198 l-33
145 -55 3 -55 3 62 -238z"/>
<path d="M5032 6206 c3 -209 4 -227 24 -253 30 -41 80 -63 144 -63 67 0 117
23 147 69 22 33 23 42 23 252 l0 219 -50 0 -50 0 0 -208 c0 -235 -4 -252 -65
-252 -24 0 -39 7 -54 26 -20 25 -21 39 -21 230 l0 204 -51 0 -50 0 3 -224z"/>
<path d="M11300 6359 c-107 -26 -205 -51 -218 -54 -21 -5 -23 -11 -20 -58 l3
-52 210 -52 c116 -29 217 -52 225 -53 12 0 15 9 12 40 -4 38 -5 39 -58 51
l-54 12 0 53 0 53 55 11 55 11 0 45 c0 24 -3 44 -7 43 -5 -1 -96 -23 -203 -50z
m30 -115 l0 -36 -37 7 c-21 3 -63 12 -93 19 l-55 12 75 16 c111 23 110 24 110
-18z"/>
<path d="M1560 6379 c-135 -26 -209 -99 -210 -206 -1 -144 134 -222 380 -223
184 0 302 35 356 106 26 34 29 45 29 114 0 68 -3 80 -28 113 -56 74 -170 107
-362 106 -66 -1 -140 -5 -165 -10z m381 -95 c133 -40 149 -161 30 -213 -95
-40 -347 -46 -451 -10 -117 40 -131 163 -24 211 25 10 73 23 107 28 84 12 274
3 338 -16z"/>
<path d="M9703 6305 c-33 -14 -70 -60 -115 -143 -32 -59 -71 -75 -113 -48 -43
28 -25 88 30 98 16 2 21 12 23 51 4 55 -6 59 -75 28 -52 -24 -73 -63 -73 -133
0 -94 53 -148 146 -148 67 0 102 26 157 118 50 85 59 92 113 92 25 0 38 -6 50
-26 24 -36 9 -74 -39 -98 -36 -17 -38 -20 -35 -60 3 -39 4 -41 33 -37 68 8
113 51 125 119 9 53 -6 122 -33 150 -45 50 -129 66 -194 37z"/>
<path d="M10120 6195 l0 -65 385 0 385 0 0 65 0 65 -385 0 -385 0 0 -65z"/>
<path d="M6980 6213 c-29 -11 -53 -39 -82 -98 -40 -80 -55 -95 -93 -95 -79 0
-91 111 -15 135 28 9 28 55 -1 55 -58 0 -93 -56 -87 -137 6 -67 36 -102 94
-109 57 -7 94 20 134 100 41 81 61 100 105 100 47 0 75 -28 75 -73 0 -44 -21
-77 -55 -85 -18 -5 -25 -13 -25 -31 0 -38 44 -33 86 9 32 32 34 38 34 101 0
63 -2 69 -34 101 -29 29 -41 34 -77 33 -24 0 -51 -3 -59 -6z"/>
<path d="M6097 6146 c-104 -29 -137 -78 -137 -203 l0 -83 275 0 275 0 0 75 c0
114 -29 165 -115 201 -54 22 -233 29 -298 10z m283 -69 c51 -21 70 -48 77
-106 l6 -51 -227 0 -226 0 0 34 c0 77 31 117 107 136 53 13 221 5 263 -13z"/>
<path d="M2320 6005 l0 -145 34 0 35 0 3 53 3 52 198 3 197 2 0 40 0 40 -200
0 -200 0 0 50 0 50 -35 0 -35 0 0 -145z"/>
<path d="M10120 5820 l0 -230 60 0 60 0 0 80 0 80 323 2 322 3 3 68 3 67 -326
0 -325 0 0 80 0 80 -60 0 -60 0 0 -230z"/>
<path d="M11060 6000 l0 -40 225 0 225 0 0 40 0 40 -225 0 -225 0 0 -40z"/>
<path d="M7320 5640 l0 -350 65 0 65 0 0 150 0 150 110 0 110 0 0 55 0 55
-110 0 -110 0 0 90 0 89 118 3 117 3 3 53 3 52 -185 0 -186 0 0 -350z"/>
<path d="M7760 5640 l0 -350 185 0 c141 0 185 3 185 13 0 6 3 29 6 49 l7 37
-124 3 -124 3 -3 103 -3 102 116 0 115 0 0 55 0 55 -115 0 -115 0 0 85 0 84
118 3 117 3 3 53 3 52 -185 0 -186 0 0 -350z"/>
<path d="M8274 5643 l-80 -348 59 -3 c33 -2 61 -1 63 1 2 2 11 41 20 85 l17
82 83 0 c82 0 82 0 88 -27 3 -16 10 -54 16 -85 l11 -58 65 0 c35 0 64 4 64 9
0 5 -23 105 -50 223 -28 117 -60 254 -71 303 -11 50 -24 107 -30 128 l-10 37
-82 0 -83 0 -80 -347z m191 82 c14 -71 25 -136 25 -142 0 -9 -18 -13 -55 -13
-36 0 -55 4 -55 12 0 21 54 290 57 281 1 -4 14 -66 28 -138z"/>
<path d="M8750 5640 l0 -350 60 0 60 0 0 151 0 151 56 -4 c88 -7 97 -22 104
-171 l5 -122 61 -3 61 -3 -4 118 c-5 127 -22 194 -55 217 -21 15 -21 15 10 41
40 33 55 82 50 159 -5 75 -33 120 -92 147 -34 15 -66 19 -178 19 l-138 0 0
-350z m257 226 c24 -21 28 -31 27 -76 -1 -71 -24 -92 -104 -98 l-60 -4 0 101
0 101 54 0 c44 0 61 -5 83 -24z"/>
<path d="M9840 5855 l0 -96 -77 3 -78 3 0 83 0 82 -42 0 -43 0 0 -85 0 -85
-65 0 -65 0 0 90 0 90 -45 0 -45 0 0 -135 0 -135 275 0 275 0 0 134 c0 146 0
146 -61 146 l-29 0 0 -95z"/>
<path d="M7110 5810 l0 -90 -90 0 -90 0 0 86 c0 76 -2 85 -17 82 -15 -3 -18
-16 -21 -86 l-3 -82 -69 0 -70 0 0 85 c0 84 0 85 -25 85 l-25 0 0 -115 0 -115
225 0 225 0 0 120 c0 113 -1 120 -20 120 -19 0 -20 -7 -20 -90z"/>
<path d="M11067 5873 c-4 -3 -7 -21 -7 -40 l0 -33 153 0 152 -1 -105 -40 c-58
-22 -125 -48 -150 -57 -44 -17 -45 -19 -48 -65 l-3 -47 225 0 226 0 0 35 0 34
-157 3 -158 3 157 58 156 59 4 45 c2 24 1 46 -1 49 -7 7 -437 5 -444 -3z"/>
<path d="M1839 5857 c-69 -26 -107 -66 -156 -162 -41 -81 -70 -113 -113 -126
-102 -31 -181 53 -139 145 12 25 63 56 93 56 12 0 16 10 16 40 0 38 -1 40 -32
40 -139 -1 -209 -202 -110 -314 47 -53 155 -71 227 -37 52 24 75 50 124 141
22 42 54 89 71 105 29 28 37 30 107 30 70 0 76 -2 99 -28 18 -22 24 -40 24
-79 0 -43 -4 -54 -33 -83 -20 -20 -48 -36 -70 -40 -35 -7 -37 -9 -37 -46 0
-34 3 -39 24 -39 71 0 147 51 171 115 23 59 16 160 -13 207 -43 69 -169 106
-253 75z"/>
<path d="M2320 5660 l0 -80 105 0 105 0 0 -425 0 -425 85 0 85 0 0 425 0 425
105 0 105 0 0 80 0 80 -295 0 -295 0 0 -80z"/>
<path d="M3012 5238 l3 -503 250 0 249 0 7 35 c4 19 9 54 12 78 l5 42 -179 0
-179 0 0 145 0 145 160 0 160 0 0 80 0 80 -160 0 -160 0 0 120 0 120 170 0
171 0 -3 78 -3 77 -253 3 -252 2 2 -502z"/>
<path d="M3645 5728 c-3 -7 -4 -233 -3 -503 l3 -490 78 0 78 0 -1 399 c0 220
-3 411 -5 425 -5 23 -4 23 4 6 6 -11 38 -198 72 -415 33 -217 63 -401 65 -408
3 -9 25 -12 81 -10 l78 3 13 65 c7 36 42 225 77 420 l63 355 1 -422 1 -422 83
2 82 2 0 500 0 500 -127 3 c-114 2 -127 1 -132 -15 -3 -10 -33 -162 -66 -338
-33 -176 -62 -324 -64 -330 -2 -5 -6 8 -9 30 -39 248 -102 615 -108 633 -8 21
-13 22 -134 22 -91 0 -127 -3 -130 -12z"/>
<path d="M4590 5237 l0 -505 83 2 82 1 3 203 2 202 73 0 c220 0 329 100 329
302 0 130 -55 225 -154 268 -47 21 -72 24 -235 28 l-183 4 0 -505z m341 330
c42 -28 63 -84 56 -147 -12 -102 -46 -130 -157 -130 l-70 0 0 150 0 150 69 0
c54 0 75 -5 102 -23z"/>
<path d="M5282 5238 l3 -503 244 -3 c135 -1 248 1 252 5 4 5 11 41 15 81 l7
72 -177 0 -176 0 0 145 0 145 160 0 161 0 -3 78 -3 77 -157 3 -158 3 0 119 0
120 165 0 165 0 0 80 0 80 -250 0 -250 0 2 -502z"/>
<path d="M5915 5729 c-3 -8 -4 -234 -3 -504 l3 -490 85 0 85 0 3 213 2 212 70
0 c62 0 73 -3 101 -28 39 -35 48 -79 49 -234 0 -64 4 -128 10 -142 9 -25 13
-26 90 -26 l80 0 -5 113 c-13 288 -19 315 -83 369 l-29 24 34 23 c73 47 107
194 72 312 -17 55 -89 129 -144 148 -60 20 -413 28 -420 10z m346 -155 c52
-26 72 -103 48 -187 -15 -56 -55 -77 -146 -77 l-73 0 0 140 0 140 70 0 c45 0
82 -6 101 -16z"/>
<path d="M10800 5624 c-68 -17 -666 -154 -674 -154 -3 0 -6 -40 -6 -88 l0 -88
138 -32 c359 -83 620 -142 626 -142 4 0 6 30 4 67 l-3 67 -35 7 c-19 4 -61 12
-92 19 l-58 11 0 88 0 87 95 18 95 18 0 69 c0 78 3 77 -90 53z m-220 -244 c0
-41 -4 -60 -12 -60 -25 -1 -308 54 -303 58 4 4 272 58 303 61 8 1 12 -17 12
-59z"/>
<path d="M9569 5590 c-141 -18 -188 -79 -189 -247 l0 -73 275 0 275 0 0 68
c-1 179 -60 243 -240 254 -36 3 -90 2 -121 -2z m223 -113 c36 -15 63 -60 56
-94 -3 -17 -17 -18 -193 -18 l-190 0 2 39 c3 49 24 73 77 85 55 14 204 6 248
-12z"/>
<path d="M6753 5561 c-39 -24 -53 -69 -53 -168 l0 -73 225 0 225 0 0 25 c0 24
-1 24 -102 27 l-103 3 0 53 c1 74 15 85 117 92 83 5 83 5 86 34 4 28 3 29 -35
23 -21 -4 -62 -7 -91 -7 -42 0 -58 -5 -77 -24 l-23 -23 -25 24 c-34 35 -101
41 -144 14z m127 -61 c15 -15 20 -33 20 -75 l0 -56 -77 3 -78 3 0 52 c1 66 23
93 77 93 25 0 45 -7 58 -20z"/>
<path d="M11067 5503 c-4 -3 -7 -30 -7 -59 0 -62 -12 -56 192 -95 65 -13 116
-24 115 -25 -1 -1 -60 -12 -132 -24 -183 -32 -177 -28 -173 -97 l3 -58 215 -3
c118 -1 219 -1 225 2 7 2 9 19 7 40 l-4 36 -172 1 -171 1 105 19 c58 10 135
23 173 30 l67 11 0 39 c0 21 -2 39 -4 39 -5 0 -262 49 -311 59 -28 6 13 9 138
10 l177 1 0 40 0 40 -218 0 c-120 0 -222 -3 -225 -7z"/>
<path d="M1360 5310 l0 -40 375 0 375 0 0 40 0 40 -375 0 -375 0 0 -40z"/>
<path d="M6700 5119 c0 -140 0 -140 23 -137 19 3 23 10 27 58 l5 55 195 0 195
0 3 28 3 27 -200 0 -201 0 0 55 c0 52 -1 55 -25 55 l-25 0 0 -141z"/>
<path d="M10127 5164 c-4 -4 -7 -108 -7 -231 l0 -223 60 0 60 0 0 80 0 80 325
0 325 0 0 65 0 65 -325 0 -324 0 -3 83 -3 82 -50 3 c-28 2 -54 0 -58 -4z"/>
<path d="M1570 5136 c-108 -23 -176 -79 -200 -165 -5 -20 -10 -82 -10 -138 l0
-103 375 0 375 0 0 103 c0 122 -11 166 -52 213 -40 45 -93 72 -177 90 -79 16
-235 17 -311 0z m336 -92 c94 -25 134 -78 134 -174 l0 -50 -305 0 -305 0 0 49
c0 87 39 149 109 172 87 29 267 31 367 3z"/>
<path d="M7310 4901 l0 -201 70 0 c130 0 169 47 170 200 0 143 -36 187 -163
197 l-77 6 0 -202z m123 130 c35 -14 50 -68 45 -157 -6 -84 -24 -114 -70 -114
l-28 0 0 140 c0 151 0 151 53 131z"/>
<path d="M7617 5093 c-4 -3 -7 -93 -7 -200 l0 -194 103 3 102 3 3 28 3 27 -70
0 -71 0 0 55 0 55 50 1 c28 1 56 2 63 3 6 0 12 14 12 31 0 30 0 30 -62 33
l-63 3 0 44 0 45 65 0 65 0 0 35 0 35 -93 0 c-52 0 -97 -3 -100 -7z"/>
<path d="M7870 4901 l0 -201 35 0 35 0 0 79 0 78 50 5 c87 9 127 72 101 159
-16 54 -45 70 -141 76 l-80 6 0 -202z m140 119 c40 -40 19 -100 -35 -100 l-35
0 0 60 c0 57 1 60 25 60 14 0 34 -9 45 -20z"/>
<path d="M8150 4900 l0 -200 35 0 35 0 0 85 c0 79 1 85 21 85 45 0 59 -18 59
-73 0 -84 7 -97 47 -97 32 0 35 2 29 23 -3 12 -6 47 -6 78 0 40 -5 61 -19 75
-18 19 -17 20 7 49 20 24 23 37 19 73 -8 73 -56 101 -174 102 l-53 0 0 -200z
m142 123 c38 -34 15 -93 -37 -93 l-35 0 0 55 c0 53 1 55 27 55 14 0 35 -7 45
-17z"/>
<path d="M8437 5094 c-4 -4 -7 -94 -7 -201 l0 -193 104 0 104 0 4 30 5 30 -74
0 -74 0 3 57 3 56 60 1 60 1 3 33 3 32 -65 0 -66 0 0 45 0 44 68 3 67 3 0 30
0 30 -95 3 c-53 1 -99 0 -103 -4z"/>
<path d="M8744 5090 c-33 -13 -54 -50 -54 -96 0 -52 26 -87 91 -120 58 -29 78
-62 61 -99 -9 -19 -19 -25 -43 -25 -25 0 -33 6 -42 30 -9 25 -17 30 -44 30
-28 0 -33 -3 -33 -25 0 -42 49 -86 101 -92 86 -10 147 48 136 130 -6 47 -35
79 -104 116 -40 22 -49 31 -51 58 -5 55 61 70 74 17 5 -19 13 -24 40 -24 39 0
43 14 19 61 -24 45 -93 63 -151 39z"/>
<path d="M9023 5090 c-56 -23 -74 -121 -31 -167 12 -13 44 -36 69 -50 54 -29
73 -61 59 -99 -14 -36 -69 -31 -88 9 -10 20 -20 27 -42 27 -39 0 -42 -9 -20
-57 26 -59 93 -79 166 -48 65 27 81 122 31 181 -12 14 -44 37 -72 52 -42 23
-50 32 -53 59 -4 41 24 60 56 37 12 -8 22 -22 22 -30 0 -9 11 -14 35 -14 39 0
43 11 23 55 -21 47 -96 69 -155 45z"/>
<path d="M9250 4901 l0 -201 35 0 35 0 -2 198 -3 197 -32 3 -33 3 0 -200z"/>
<path d="M9435 5078 c-41 -32 -55 -76 -55 -175 0 -145 28 -199 107 -210 94
-12 142 55 143 196 0 103 -15 155 -53 187 -38 32 -103 33 -142 2z m111 -73
c16 -40 19 -153 4 -207 -17 -59 -69 -63 -89 -6 -17 47 -14 184 4 218 23 44 61
41 81 -5z"/>
<path d="M9690 4900 l0 -200 30 0 29 0 3 138 3 137 49 -137 50 -138 38 0 38 0
0 200 0 200 -30 0 -29 0 -3 -132 -3 -133 -44 120 c-24 66 -48 126 -53 133 -6
6 -26 12 -44 12 l-34 0 0 -200z"/>
<path d="M11199 5070 c-104 -19 -144 -64 -137 -156 8 -98 74 -137 228 -137
158 1 230 46 230 144 0 67 -20 103 -72 128 -50 23 -177 35 -249 21z m216 -94
c29 -13 35 -20 35 -45 0 -52 -35 -66 -166 -66 -126 0 -154 12 -154 67 0 23 7
32 33 43 44 19 207 20 252 1z"/>
<path d="M6956 4929 c-15 -12 -42 -52 -61 -90 -19 -37 -44 -73 -54 -79 -51
-27 -101 2 -101 58 0 34 29 72 55 72 9 0 15 9 15 25 0 33 -38 34 -76 2 -22
-19 -28 -34 -31 -78 -3 -30 0 -66 6 -81 15 -40 68 -70 110 -64 52 8 77 30 110
99 44 94 90 124 144 96 30 -16 37 -28 37 -67 0 -45 -14 -68 -50 -80 -23 -9
-30 -17 -30 -38 0 -25 2 -26 33 -20 57 12 81 46 85 126 4 69 4 70 -31 105 -31
31 -41 35 -85 35 -35 0 -57 -6 -76 -21z"/>
<path d="M11340 4723 c-29 -10 -62 -48 -87 -98 -33 -65 -51 -85 -79 -85 -55 0
-72 61 -24 88 25 14 30 23 30 55 0 44 -17 48 -68 17 -41 -25 -55 -61 -49 -129
3 -46 9 -59 36 -83 25 -23 41 -28 81 -28 61 0 89 22 133 105 36 68 70 91 111
75 49 -18 42 -93 -9 -106 -21 -5 -25 -12 -25 -45 0 -33 3 -39 20 -39 34 0 79
28 95 60 19 37 19 113 0 154 -9 18 -28 40 -44 49 -28 16 -90 21 -121 10z"/>
<path d="M10120 4565 l0 -65 385 0 385 0 0 65 0 65 -385 0 -385 0 0 -65z"/>
<path d="M4317 4506 c-77 -29 -97 -64 -97 -176 l0 -80 220 0 220 0 0 78 c0
143 -46 184 -210 189 -63 2 -108 -1 -133 -11z m208 -76 c45 -10 75 -41 75 -76
l0 -24 -161 0 -161 0 6 32 c8 41 22 56 60 67 41 12 131 13 181 1z"/>
<path d="M1350 4489 c0 -7 28 -143 62 -301 l62 -289 60 3 61 3 22 95 c12 52
32 145 45 205 l22 110 12 -55 c7 -30 27 -124 45 -208 l32 -153 61 3 61 3 67
290 c36 159 64 293 62 297 -3 5 -28 8 -55 8 -42 0 -51 -3 -58 -22 -4 -13 -23
-112 -41 -220 l-33 -198 -33 158 c-18 86 -39 184 -46 217 l-13 60 -55 0 -54 0
-46 -220 -47 -220 -13 90 c-6 50 -22 149 -34 220 l-21 130 -62 3 c-45 2 -63
-1 -63 -9z"/>
<path d="M2205 4483 c-50 -26 -74 -54 -97 -112 -31 -80 -31 -270 1 -352 34
-88 94 -129 189 -129 65 0 110 16 149 53 52 49 68 111 68 263 0 125 -1 133
-30 189 -40 77 -89 105 -184 105 -40 -1 -78 -7 -96 -17z m161 -110 c36 -54 43
-231 12 -330 -19 -62 -86 -83 -126 -40 -33 35 -42 79 -42 198 0 160 24 212 94
207 33 -2 45 -9 62 -35z"/>
<path d="M2630 4201 l0 -301 55 0 55 0 0 125 0 125 55 0 c76 0 95 -20 95 -99
0 -32 3 -79 6 -105 l7 -46 57 0 58 0 -5 103 c-5 115 -15 149 -50 177 l-24 19
21 11 c60 32 80 147 37 211 -37 57 -81 71 -233 77 l-134 5 0 -302z m244 188
c21 -16 26 -29 26 -64 0 -60 -32 -85 -106 -85 l-54 0 0 78 c0 43 3 82 7 85 15
16 101 7 127 -14z"/>
<path d="M3130 4497 c-3 -3 -4 -138 -2 -301 l3 -296 54 0 55 0 0 125 0 125 55
0 c76 0 95 -20 95 -99 0 -32 3 -79 6 -105 l7 -46 57 0 57 0 -4 103 c-5 114
-15 149 -50 177 l-24 19 21 11 c60 32 80 147 37 211 -37 57 -81 71 -231 76
-72 3 -133 3 -136 0z m244 -108 c21 -16 26 -29 26 -64 0 -60 -32 -85 -106 -85
l-54 0 0 78 c0 43 3 82 7 85 15 16 101 7 127 -14z"/>
<path d="M3570 4492 c0 -5 38 -91 85 -191 l85 -182 0 -109 0 -110 60 0 60 0 0
109 0 109 85 183 c47 100 85 186 85 191 0 5 -28 8 -61 6 l-61 -3 -44 -115
c-24 -63 -48 -123 -52 -134 -6 -14 -21 16 -60 118 l-53 136 -65 0 c-35 0 -64
-4 -64 -8z"/>
<path d="M5125 4438 c-3 -13 -61 -259 -129 -548 l-122 -525 95 -3 c58 -2 97 1
101 8 3 6 17 67 30 135 l24 125 131 0 132 0 23 -125 c13 -69 27 -130 30 -135
4 -7 45 -10 107 -8 l100 3 -88 375 c-49 206 -107 453 -130 548 l-41 172 -129
0 c-125 0 -129 -1 -134 -22z m179 -403 c24 -121 43 -221 41 -223 -1 -1 -42 -1
-91 0 l-89 3 44 229 c25 126 46 225 48 220 2 -5 23 -108 47 -229z"/>
<path d="M5750 3910 l0 -550 92 0 91 0 -5 403 c-3 221 -4 395 -1 387 3 -8 68
-189 145 -402 l140 -388 109 0 109 0 0 550 0 550 -91 0 -92 0 5 -380 4 -379
-82 222 c-45 122 -108 292 -141 377 l-59 155 -112 3 -112 3 0 -551z"/>
<path d="M6530 4456 c0 -2 56 -121 125 -265 69 -144 125 -266 125 -270 0 -5
-52 -118 -116 -252 -64 -134 -122 -259 -130 -276 l-14 -33 103 0 104 0 83 200
c46 110 84 199 86 197 2 -2 39 -91 83 -198 l79 -194 111 -3 c61 -1 111 1 111
4 0 4 -59 136 -132 292 l-131 285 103 206 c57 113 113 230 126 259 l24 53
-106 -3 -106 -3 -70 -170 c-38 -93 -73 -173 -77 -177 -4 -4 -40 73 -81 172
l-75 180 -112 0 c-62 0 -113 -2 -113 -4z"/>
<path d="M7370 3910 l0 -550 100 0 100 0 0 550 0 550 -100 0 -100 0 0 -550z"/>
<path d="M7760 3910 l0 -550 289 0 289 0 11 75 c6 42 11 80 11 85 0 6 -79 10
-200 10 l-200 0 0 160 0 160 180 0 180 0 0 85 0 85 -180 0 -180 0 0 135 0 135
188 2 187 3 3 83 3 82 -291 0 -290 0 0 -550z"/>
<path d="M8430 4375 l0 -85 120 0 120 0 0 -465 0 -465 100 0 100 0 0 465 0
465 120 0 120 0 0 85 0 85 -340 0 -340 0 0 -85z"/>
<path d="M9170 4453 c0 -3 63 -158 140 -344 l140 -337 0 -206 0 -206 100 0
100 0 0 199 0 198 141 339 c78 187 143 345 146 352 4 9 -20 12 -100 12 l-105
0 -40 -112 c-22 -62 -59 -173 -83 -245 -24 -73 -46 -133 -49 -133 -3 0 -19 44
-36 98 -17 53 -55 163 -84 245 l-53 147 -108 0 c-60 0 -109 -3 -109 -7z"/>
<path d="M11060 4355 l0 -35 158 0 157 -1 -154 -59 c-85 -33 -156 -60 -158
-60 -2 0 -3 -20 -1 -45 l3 -46 223 0 c122 0 222 3 222 6 0 3 0 19 0 35 l0 30
-157 0 -158 1 155 58 155 57 3 47 3 47 -225 0 -226 0 0 -35z"/>
<path d="M10248 4364 c-90 -27 -138 -100 -138 -207 0 -166 134 -247 410 -247
266 0 380 64 380 215 0 60 -18 105 -50 128 -20 14 -20 15 10 20 29 6 30 9 30
57 l0 50 -215 0 -215 0 0 -115 0 -115 61 0 61 0 -3 48 -3 47 66 -1 c77 -2 116
-18 137 -56 29 -51 -14 -110 -95 -128 -55 -13 -283 -12 -344 1 -71 15 -110 50
-110 98 0 42 18 65 68 82 31 11 32 12 32 75 0 73 -1 73 -82 48z"/>
<path d="M4490 4183 c-28 -10 -62 -48 -86 -94 -31 -62 -49 -79 -85 -79 -22 0
-32 7 -41 25 -13 28 1 51 39 66 18 7 23 16 23 44 0 29 -4 35 -20 35 -57 0
-110 -58 -110 -120 0 -79 51 -130 128 -130 49 0 83 25 119 88 38 68 63 92 93
92 64 0 79 -81 20 -103 -26 -10 -30 -16 -30 -49 0 -32 3 -38 20 -38 12 0 34 7
50 15 83 43 79 199 -5 239 -32 16 -85 20 -115 9z"/>
<path d="M11060 3980 l0 -40 225 0 225 0 0 40 0 40 -225 0 -225 0 0 -40z"/>
<path d="M4220 3766 l0 -136 35 0 c35 0 35 0 35 45 l0 45 185 0 185 0 0 40 0
40 -184 0 -185 0 -3 48 c-3 45 -4 47 -35 50 l-33 3 0 -135z"/>
<path d="M10615 3804 c-126 -30 -290 -68 -362 -85 l-133 -31 0 -87 0 -88 103
-22 c83 -19 554 -125 645 -146 22 -5 23 -4 20 62 -3 76 9 66 -125 93 l-63 13
0 87 0 88 95 18 95 18 0 68 c0 64 -1 68 -22 67 -13 -1 -126 -25 -253 -55z
m-35 -204 c0 -44 -4 -60 -14 -60 -7 0 -68 11 -136 25 -68 14 -134 25 -148 25
-54 0 -5 16 126 42 188 36 172 39 172 -32z"/>
<path d="M11146 3755 c-43 -23 -55 -45 -56 -95 0 -57 18 -84 78 -114 26 -13
55 -33 65 -44 22 -24 19 -70 -4 -85 -25 -16 -68 0 -75 28 -5 21 -12 25 -40 25
-30 0 -34 -3 -34 -25 0 -14 13 -39 28 -56 54 -60 171 -48 207 21 36 69 6 139
-79 182 -56 28 -76 47 -76 73 0 51 74 59 86 10 5 -21 12 -25 41 -25 35 0 35 1
29 33 -4 17 -17 42 -29 54 -30 30 -102 39 -141 18z"/>
<path d="M11450 3752 c-53 -26 -73 -71 -78 -171 -5 -98 8 -159 42 -198 22 -25
31 -28 85 -28 51 0 64 4 86 25 13 14 27 40 31 58 6 31 6 32 -30 32 -23 0 -36
-5 -36 -13 0 -21 -36 -49 -57 -45 -9 2 -23 14 -30 28 -16 32 -17 200 -1 234
21 48 69 42 89 -11 6 -17 16 -23 39 -23 26 0 30 4 30 28 0 37 -25 71 -66 88
-44 18 -62 18 -104 -4z"/>
<path d="M11701 3578 c-23 -101 -45 -191 -48 -201 -4 -16 1 -18 34 -15 37 3
38 4 47 51 l8 47 49 0 49 0 6 -39 c9 -55 16 -63 56 -59 l34 3 -46 195 -47 195
-49 3 -50 3 -43 -183z m119 -35 c0 -19 -5 -23 -30 -23 -33 0 -34 4 -20 70 22
100 22 99 36 35 7 -33 13 -70 14 -82z"/>
<path d="M11970 3560 l0 -200 40 0 40 0 0 85 0 85 29 0 c48 0 61 -22 61 -101
l0 -69 41 0 c33 0 40 3 35 16 -3 9 -6 44 -6 78 0 48 -4 67 -19 82 -18 19 -18
19 1 40 25 28 34 86 18 124 -19 46 -56 60 -155 60 l-85 0 0 -200z m160 125 c7
-8 13 -26 13 -40 0 -36 -21 -55 -59 -55 l-34 0 0 55 0 55 34 0 c18 0 39 -7 46
-15z"/>
<path d="M12280 3560 l0 -200 105 0 c84 0 105 3 105 14 0 8 3 21 6 30 5 14 -5
16 -70 16 l-76 0 0 60 0 60 65 0 65 0 0 30 0 30 -65 0 -65 0 0 50 0 50 70 0
70 0 0 30 0 30 -105 0 -105 0 0 -200z"/>
<path d="M12540 3560 l0 -202 91 4 c87 3 92 4 119 35 69 77 68 263 -2 330 -27
26 -36 28 -119 31 l-89 4 0 -202z m160 113 c19 -25 21 -38 18 -119 -3 -104
-19 -134 -70 -134 l-28 0 0 140 0 140 29 0 c20 0 36 -9 51 -27z"/>
<path d="M1330 3520 l0 -190 30 0 30 0 0 80 0 80 60 0 60 0 0 30 0 30 -61 0
-60 0 3 48 3 47 63 3 c61 3 62 3 62 32 l0 30 -95 0 -95 0 0 -190z"/>
<path d="M1564 3697 c-2 -7 -3 -91 -2 -187 l3 -175 33 -3 32 -3 0 80 0 81 28
0 c40 0 52 -17 52 -76 0 -71 7 -84 41 -84 29 0 29 1 29 59 0 62 -16 121 -32
121 -5 0 0 12 11 26 25 32 28 100 6 131 -9 12 -32 27 -53 33 -53 14 -142 13
-148 -3z m148 -72 c18 -41 -3 -75 -47 -75 l-35 0 0 50 0 50 35 0 c28 0 38 -5
47 -25z"/>
<path d="M1837 3703 c-4 -3 -7 -69 -7 -145 0 -197 16 -228 120 -228 44 0 56 5
81 29 l29 29 0 161 0 161 -30 0 -30 0 0 -134 c0 -74 -4 -146 -9 -159 -13 -32
-39 -41 -67 -22 -23 15 -24 19 -24 165 l0 150 -28 0 c-16 0 -32 -3 -35 -7z"/>
<path d="M2158 3694 c-17 -9 -32 -28 -39 -53 -17 -56 7 -100 72 -135 57 -32
81 -62 72 -94 -11 -45 -93 -32 -93 15 0 10 -10 13 -32 11 -29 -3 -33 -6 -30
-28 2 -14 16 -37 33 -52 24 -23 39 -28 80 -28 43 0 55 5 80 29 23 24 29 38 29
74 0 55 -25 89 -91 122 -33 17 -51 33 -55 50 -13 51 46 77 68 30 9 -19 19 -25
44 -25 32 0 32 1 23 32 -5 18 -9 34 -9 35 0 1 -13 9 -30 18 -36 19 -87 19
-122 -1z"/>
<path d="M2357 3703 c-4 -3 -7 -17 -7 -30 0 -20 5 -23 40 -23 l39 0 3 -157 3
-158 33 -3 32 -3 0 160 0 161 40 0 c38 0 40 2 40 30 l0 30 -108 0 c-60 0 -112
-3 -115 -7z"/>
<path d="M2620 3521 l0 -191 30 0 30 0 0 80 0 80 34 0 c44 0 50 -10 56 -90 5
-64 5 -65 36 -68 l31 -3 -4 73 c-3 40 -12 83 -20 96 -12 20 -12 25 7 49 33 43
22 114 -22 142 -12 7 -56 16 -100 18 l-78 6 0 -192z m138 117 c7 -7 12 -24 12
-38 0 -35 -17 -50 -57 -50 -33 0 -33 0 -33 50 0 50 0 50 33 50 18 0 38 -5 45
-12z"/>
<path d="M2956 3701 c-6 -9 -86 -346 -86 -362 0 -6 15 -9 32 -7 31 3 34 6 42
51 l8 47 43 0 c41 0 44 -2 50 -32 13 -64 16 -68 44 -68 15 0 30 2 33 5 3 3
-12 78 -33 168 -22 89 -41 172 -44 185 -4 18 -12 22 -45 22 -21 0 -41 -4 -44
-9z m54 -128 c17 -88 18 -86 -12 -87 -20 -1 -28 3 -28 15 0 20 22 129 26 129
1 0 8 -26 14 -57z"/>
<path d="M3107 3703 c-4 -3 -7 -17 -7 -30 0 -20 5 -23 40 -23 l39 0 3 -157 3
-158 33 -3 32 -3 0 160 0 161 40 0 c38 0 40 2 40 30 l0 30 -108 0 c-60 0 -112
-3 -115 -7z"/>
<path d="M3370 3520 l0 -191 33 3 32 3 0 185 0 185 -32 3 -33 3 0 -191z"/>
<path d="M3543 3686 c-36 -31 -53 -84 -53 -167 0 -128 38 -189 117 -189 59 0
81 13 104 63 24 55 26 189 3 247 -28 70 -115 93 -171 46z m107 -62 c6 -14 10
-66 10 -115 0 -76 -3 -92 -20 -109 -11 -11 -24 -20 -29 -20 -18 0 -40 31 -47
65 -10 53 0 170 15 189 21 25 60 20 71 -10z"/>
<path d="M3790 3520 l0 -191 28 3 27 3 0 127 c0 69 2 124 5 122 2 -3 25 -60
50 -127 l45 -122 35 0 35 0 0 185 0 185 -27 3 -27 3 -3 -128 -3 -128 -46 125
-45 125 -37 3 -37 3 0 -191z"/>
<path d="M4283 3585 c-47 -20 -63 -60 -63 -160 l0 -85 220 0 220 0 0 40 0 40
-90 0 -90 0 0 45 c0 57 -21 100 -60 120 -36 19 -95 19 -137 0z m117 -85 c11
-11 20 -33 20 -50 l0 -30 -70 0 -70 0 0 30 c0 17 9 39 20 50 11 11 33 20 50
20 17 0 39 -9 50 -20z"/>
<path d="M6912 3031 l3 -121 -127 0 -128 0 0 111 0 110 -32 -3 -33 -3 -3 -107
-3 -108 -104 0 -105 0 0 115 0 115 -35 0 -35 0 0 -155 0 -155 335 0 336 0 -3
158 -3 157 -33 3 -33 3 3 -120z"/>
<path d="M10084 3131 c-53 -24 -97 -79 -120 -149 -15 -46 -19 -87 -19 -207 1
-132 4 -157 24 -207 27 -70 74 -112 144 -129 91 -22 199 8 246 67 18 23 51
111 51 136 0 5 -30 8 -66 6 l-66 -3 -14 -40 c-16 -46 -37 -65 -75 -65 -44 0
-58 10 -82 54 -20 37 -22 56 -22 191 0 198 17 246 93 261 26 5 36 1 62 -24 18
-18 30 -41 30 -56 0 -25 1 -26 70 -26 l71 0 -7 38 c-8 46 -35 101 -61 124 -54
49 -182 64 -259 29z"/>
<path d="M6 3113 c3 -16 36 -172 72 -348 l67 -320 67 -3 c57 -2 67 0 72 15 6
23 83 385 92 438 6 35 12 18 45 -145 20 -102 43 -212 51 -245 l13 -60 67 -3
c61 -3 66 -1 71 20 19 75 147 658 147 667 0 7 -24 11 -64 11 -53 0 -66 -3 -69
-17 -3 -10 -22 -124 -43 -254 l-38 -236 -51 251 -50 251 -62 3 c-58 3 -63 1
-68 -20 -3 -13 -27 -129 -54 -258 -47 -229 -48 -233 -55 -180 -4 30 -21 143
-37 250 -16 106 -29 198 -29 202 0 4 -34 8 -75 8 l-74 0 5 -27z"/>
<path d="M850 2790 l0 -351 65 3 c36 2 65 6 65 11 0 4 0 160 0 347 l0 340 -65
0 -65 0 0 -350z"/>
<path d="M1060 3085 l0 -55 80 0 80 0 2 -292 3 -293 68 -3 67 -3 0 296 0 295
80 0 80 0 0 55 0 55 -230 0 -230 0 0 -55z"/>
<path d="M1600 2790 l0 -350 65 0 64 0 3 158 3 157 90 0 90 0 3 -158 3 -158
67 3 c37 2 66 6 65 11 -2 4 -3 160 -3 347 l0 340 -65 0 -65 0 0 -135 0 -135
-95 0 -95 0 0 135 0 135 -65 0 -65 0 0 -350z"/>
<path d="M2190 2790 l0 -353 133 5 c202 7 266 44 314 181 24 71 24 291 -1 356
-23 62 -60 107 -109 133 -37 20 -61 23 -189 26 l-148 4 0 -352z m265 226 c45
-30 59 -78 59 -206 1 -193 -33 -260 -135 -260 l-49 0 0 246 0 247 49 -5 c28
-3 62 -13 76 -22z"/>
<path d="M2770 2791 l0 -351 65 0 65 0 0 150 0 150 50 0 c99 0 120 -27 120
-154 0 -46 3 -98 6 -115 6 -31 7 -31 71 -31 l65 0 -7 123 c-8 143 -17 179 -53
208 l-27 21 28 20 c42 31 60 75 61 145 0 49 -5 69 -26 101 -44 66 -79 77 -260
80 l-158 3 0 -350z m263 238 c50 -23 63 -109 24 -154 -19 -23 -33 -28 -90 -32
l-67 -6 0 102 0 101 55 0 c30 0 65 -5 78 -11z"/>
<path d="M3445 3128 c-2 -7 -42 -163 -89 -346 -64 -252 -81 -334 -72 -338 8
-3 38 -4 67 -2 l54 3 21 85 20 85 89 0 89 0 13 -65 c24 -121 14 -110 94 -110
63 0 71 2 67 18 -2 9 -42 167 -89 350 l-84 332 -88 0 c-61 0 -89 -4 -92 -12z
m92 -396 c-33 -2 -61 -1 -63 1 -3 2 4 42 15 88 10 46 25 111 31 144 l13 60 31
-145 32 -145 -59 -3z"/>
<path d="M3790 3133 c1 -29 141 -678 148 -685 5 -5 36 -8 68 -6 l59 3 18 70
c9 39 31 140 48 225 17 85 33 162 36 170 3 10 102 -438 103 -467 0 -7 130 -2
134 5 4 7 156 675 156 687 0 3 -30 5 -68 5 l-67 0 -38 -232 c-20 -128 -37
-242 -37 -252 0 -48 -14 7 -55 213 -25 122 -48 233 -51 247 -6 24 -10 25 -67
22 l-61 -3 -48 -225 c-26 -124 -48 -235 -48 -248 0 -39 -20 -14 -20 26 -1 20
-15 129 -33 242 l-32 205 -72 3 c-40 2 -73 -1 -73 -5z"/>
<path d="M4631 2802 c-47 -185 -87 -343 -89 -350 -3 -10 11 -12 64 -10 l69 3
19 88 20 87 87 0 c96 0 90 4 104 -70 4 -19 11 -52 16 -72 l10 -38 69 0 c39 0
70 2 70 4 0 9 -172 682 -177 689 -2 4 -43 7 -91 7 l-87 0 -84 -338z m175 -70
c-32 -2 -60 -1 -63 1 -3 4 25 145 54 267 4 17 15 -20 37 -120 l31 -145 -59 -3z"/>
<path d="M5140 2790 l0 -350 189 0 c187 0 189 0 195 23 3 12 6 37 6 55 l0 32
-130 0 -130 0 0 295 0 295 -65 0 -65 0 0 -350z"/>
<path d="M6070 3056 l0 -86 -65 0 -64 0 -3 78 -3 77 -35 0 -35 0 0 -78 0 -77
-57 0 -58 0 0 80 0 80 -35 0 -35 0 0 -125 0 -125 230 0 231 0 -3 128 -3 127
-32 3 -33 3 0 -85z"/>
<path d="M7160 2790 l0 -351 68 3 67 3 3 158 3 157 89 0 90 0 0 -160 0 -161
68 3 67 3 3 348 2 347 -70 0 -70 0 0 -135 0 -135 -90 0 -90 0 0 135 0 135 -70
0 -70 0 0 -350z"/>
<path d="M7760 2790 l0 -350 195 0 194 0 6 38 c4 20 9 45 12 55 4 16 -7 17
-136 17 l-141 0 0 100 0 99 123 3 122 3 3 52 3 52 -123 3 -123 3 -3 83 -3 82
131 0 130 0 0 55 0 55 -195 0 -195 0 0 -350z"/>
<path d="M8320 2803 c-47 -186 -86 -344 -88 -351 -3 -10 13 -12 65 -10 l68 3
19 88 20 87 88 0 c99 0 87 12 111 -110 l13 -65 72 -3 73 -3 -7 28 c-4 15 -44
172 -89 348 l-81 320 -89 3 -90 3 -85 -338z m230 -60 c0 -9 -19 -13 -60 -13
-33 0 -60 2 -60 4 0 6 48 234 56 266 5 18 15 -14 35 -110 16 -74 29 -141 29
-147z"/>
<path d="M8840 2790 l0 -353 133 5 c104 4 142 9 177 25 93 42 132 108 151 253
23 178 -22 327 -115 385 -48 29 -53 30 -198 33 l-148 4 0 -352z m261 230 c41
-23 62 -94 62 -215 0 -129 -14 -188 -53 -227 -24 -24 -36 -28 -84 -28 l-56 0
0 238 c0 131 3 242 8 246 9 10 96 0 123 -14z"/>
<path d="M9530 3134 c0 -3 -38 -157 -85 -343 -47 -185 -85 -340 -85 -344 0
-13 130 -8 135 6 2 6 11 47 20 90 l16 77 88 0 88 0 19 -87 19 -88 59 -3 c32
-2 64 -1 71 2 8 3 -14 104 -76 348 -49 188 -89 344 -89 346 0 5 -180 2 -180
-4z m119 -244 c12 -63 25 -125 28 -137 5 -22 2 -23 -57 -23 -59 0 -62 1 -58
23 3 12 16 77 29 144 13 67 27 119 30 115 3 -4 16 -59 28 -122z"/>
<path d="M10502 2793 l3 -348 68 -3 67 -3 0 161 0 160 90 0 89 0 3 -157 3
-158 68 -3 67 -3 0 351 0 350 -70 0 -70 0 0 -135 0 -135 -90 0 -90 0 0 135 0
135 -70 0 -70 0 2 -347z"/>
<path d="M11102 2793 l3 -348 189 -3 c104 -1 193 1 197 5 3 5 10 29 13 56 l7
47 -135 0 -136 0 0 100 0 100 120 0 120 0 0 55 0 55 -120 0 -120 0 0 85 0 85
125 0 125 0 0 55 0 55 -195 0 -195 0 2 -347z"/>
<path d="M5734 2791 c-42 -25 -54 -66 -54 -177 l0 -94 230 0 230 0 0 45 0 45
-101 0 -101 0 7 38 c10 57 25 66 115 70 l80 4 0 45 0 46 -37 -7 c-21 -3 -62
-6 -91 -6 -42 0 -58 -5 -76 -23 l-23 -23 -32 28 c-38 34 -100 38 -147 9z m130
-93 c9 -12 16 -37 16 -55 l0 -33 -65 0 -65 0 0 43 c0 53 13 67 61 67 28 0 42
-6 53 -22z"/>
<path d="M6312 2723 l3 -38 70 -18 c39 -9 169 -41 290 -71 186 -45 214 -54
185 -60 -30 -6 -343 -76 -495 -110 -48 -11 -50 -13 -53 -49 -2 -26 1 -37 10
-37 12 0 505 120 621 151 36 9 37 11 37 54 0 25 -2 45 -5 45 -5 0 -613 156
-648 166 -16 5 -18 0 -15 -33z"/>
<path d="M5680 2395 l0 -45 183 0 c165 0 186 -2 200 -18 23 -25 21 -65 -4 -88
-19 -17 -41 -19 -200 -22 l-179 -3 0 -40 0 -39 194 0 c183 0 195 1 221 22 80
63 71 217 -15 260 -29 15 -64 18 -217 18 l-183 0 0 -45z"/>
<path d="M2030 2262 c-39 -40 -54 -100 -54 -217 1 -140 30 -205 100 -224 46
-13 97 3 127 39 33 39 51 140 44 239 -7 91 -19 126 -55 164 -22 23 -34 27 -80
27 -46 0 -58 -4 -82 -28z m133 -43 c39 -54 40 -274 0 -327 -39 -52 -100 -34
-121 36 -14 47 -16 204 -2 251 21 74 82 94 123 40z"/>
<path d="M2301 2213 c11 -43 36 -148 57 -233 l38 -155 31 -3 c29 -3 33 0 42
35 5 21 30 119 56 218 25 99 48 188 51 198 5 15 1 18 -22 15 -28 -3 -29 -5
-74 -196 -45 -183 -60 -231 -60 -185 0 12 -18 100 -40 197 -22 96 -40 178 -40
181 0 3 -13 5 -29 5 l-28 0 18 -77z"/>
<path d="M2630 2055 l0 -235 110 0 110 0 0 25 c0 25 -1 25 -85 25 l-86 0 3 88
3 87 78 3 c69 3 77 5 77 22 0 18 -7 20 -80 20 l-80 0 0 75 0 74 83 3 c74 3 82
5 82 23 0 19 -8 20 -107 23 l-108 3 0 -236z"/>
<path d="M2910 2056 l0 -236 25 0 c24 0 24 1 27 108 l3 107 48 -1 c69 -1 78
-14 85 -123 5 -89 5 -91 30 -91 l24 0 -4 95 c-3 83 -7 98 -28 121 -18 19 -21
28 -12 31 21 8 42 60 42 107 0 36 -6 52 -29 78 -28 32 -32 33 -120 36 l-91 4
0 -236z m173 163 c25 -31 22 -85 -8 -114 -18 -19 -35 -25 -70 -25 l-45 0 0 78
c0 43 3 82 8 86 14 15 96 -3 115 -25z"/>
<path d="M3203 2268 c3 -13 25 -119 48 -235 l42 -213 27 0 c26 0 26 0 65 191
l38 191 33 -169 c46 -232 40 -215 71 -211 27 3 28 6 75 223 26 121 47 226 48
233 0 6 -11 12 -25 12 -14 0 -25 -2 -25 -4 0 -3 -16 -86 -35 -186 -19 -100
-35 -184 -36 -188 0 -4 -11 47 -24 113 -52 260 -54 265 -81 265 -13 0 -24 -1
-24 -2 0 -2 -18 -88 -39 -193 -31 -152 -40 -183 -45 -155 -3 19 -18 105 -34
190 l-27 155 -29 3 c-25 3 -28 1 -23 -20z"/>
<path d="M3705 2278 c-3 -7 -4 -112 -3 -233 l3 -220 25 0 25 0 3 113 3 113 72
-3 72 -3 3 -112 c3 -113 3 -113 27 -113 l25 0 0 235 0 235 -25 0 -25 0 0 -100
0 -100 -75 0 -74 0 -3 98 c-3 92 -4 97 -26 100 -12 2 -24 -3 -27 -10z"/>
<path d="M4050 2055 l0 -235 110 0 110 0 0 25 c0 25 -1 25 -85 25 l-86 0 3 88
3 87 78 3 c69 3 77 5 77 22 0 18 -7 20 -80 20 l-80 0 0 75 0 74 83 3 c74 3 82
5 82 23 0 19 -8 20 -107 23 l-108 3 0 -236z"/>
<path d="M4330 2055 l0 -236 108 3 c102 3 107 4 110 26 3 21 1 22 -82 22 l-86
0 0 210 0 210 -25 0 -25 0 0 -235z"/>
<path d="M4600 2055 l0 -235 26 0 26 0 -4 199 c-2 110 -1 198 0 196 2 -2 22
-90 45 -197 41 -187 43 -193 67 -193 27 0 23 -11 93 285 l25 105 1 -197 1
-198 25 0 25 0 0 235 0 235 -38 0 -38 0 -45 -184 c-24 -102 -45 -183 -47 -181
-3 2 -82 351 -82 361 0 2 -18 4 -40 4 l-40 0 0 -235z"/>
<path d="M5020 2055 l0 -235 110 0 110 0 0 25 c0 25 -1 25 -85 25 l-86 0 3 88
3 87 78 3 c69 3 77 5 77 22 0 18 -7 20 -80 20 l-80 0 0 75 0 74 83 3 c74 3 82
5 82 23 0 19 -8 20 -107 23 l-108 3 0 -236z"/>
<path d="M5300 2054 l0 -236 79 3 c92 5 124 22 156 85 28 56 29 251 1 307 -27
54 -77 77 -166 77 l-70 0 0 -236z m168 163 c29 -31 42 -78 42 -155 0 -136 -34
-192 -116 -192 l-44 0 0 185 0 185 48 0 c38 0 53 -5 70 -23z"/>
<path d="M8270 2277 c-70 -24 -106 -127 -97 -277 8 -146 49 -210 134 -210 90
0 128 46 144 174 17 134 -11 266 -63 299 -35 22 -79 28 -118 14z m79 -47 c34
-18 46 -69 46 -195 0 -132 -10 -168 -57 -194 -36 -21 -72 -1 -92 51 -19 46
-22 227 -5 279 19 59 64 83 108 59z"/>
<path d="M10080 2283 c-65 -21 -90 -56 -90 -126 0 -56 25 -89 92 -123 77 -39
98 -65 98 -119 0 -54 -25 -85 -70 -85 -36 0 -80 39 -80 70 0 16 -6 20 -31 20
-27 0 -30 -3 -24 -22 4 -13 9 -31 11 -40 3 -9 19 -29 35 -43 54 -45 169 -29
196 27 48 97 15 176 -98 233 -55 28 -79 58 -79 97 0 81 117 92 132 13 2 -14
13 -21 32 -23 28 -3 29 -2 22 29 -8 43 -41 77 -85 89 -39 11 -39 11 -61 3z"/>
<path d="M10381 2277 c-50 -18 -76 -58 -75 -118 1 -58 30 -96 106 -135 58 -30
88 -67 88 -111 0 -41 -37 -83 -73 -83 -32 0 -73 33 -81 65 -5 18 -13 25 -31
25 -29 0 -31 -15 -11 -65 18 -43 61 -65 127 -65 45 0 55 4 85 34 31 31 34 39
34 94 0 73 -25 109 -102 148 -69 35 -88 57 -88 102 0 45 24 72 63 72 32 0 67
-32 67 -60 0 -15 7 -20 25 -20 21 0 25 5 25 29 0 39 -34 78 -78 91 -44 12 -38
12 -81 -3z"/>
<path d="M7930 2045 c0 -129 0 -238 0 -242 0 -5 48 -8 108 -8 103 0 107 1 110
23 3 21 1 22 -82 22 l-86 0 0 220 0 220 -25 0 -25 0 0 -235z"/>
<path d="M8535 2268 c-3 -7 -4 -117 -3 -243 l3 -230 23 0 24 0 -1 205 -1 205
70 -175 c38 -96 75 -190 81 -208 10 -29 15 -33 42 -30 l32 3 3 243 2 242 -25
0 -25 0 0 -197 -1 -198 -78 195 c-77 191 -79 195 -110 198 -19 2 -33 -2 -36
-10z"/>
<path d="M8900 2035 l0 -245 109 0 c90 0 110 3 115 16 12 31 5 34 -79 34 l-85
0 0 220 0 220 -30 0 -30 0 0 -245z"/>
<path d="M9180 2035 l0 -245 25 0 25 0 0 245 0 245 -25 0 -25 0 0 -245z"/>
<path d="M9330 2035 l0 -245 25 0 25 0 0 203 1 202 78 -200 c77 -197 79 -200
110 -203 l31 -3 0 245 0 246 -25 0 -26 0 3 -190 c2 -105 1 -190 -2 -190 -3 0
-38 86 -79 190 l-74 190 -34 0 -33 0 0 -245z"/>
<path d="M9700 2035 l0 -246 113 3 c108 3 112 4 115 26 3 21 1 22 -87 22 l-91
0 0 95 0 95 80 0 c73 0 80 2 80 20 0 18 -7 20 -80 20 l-80 0 0 80 0 80 85 0
c84 0 85 0 85 25 l0 25 -110 0 -110 0 0 -245z"/>
<path d="M6317 2253 c-4 -3 -7 -21 -7 -40 l0 -33 336 0 335 0 -3 38 -3 37
-326 3 c-179 1 -328 -1 -332 -5z"/>
<path d="M7317 2246 c-55 -15 -91 -39 -121 -80 -18 -24 -21 -45 -24 -152 l-4
-124 301 0 301 0 0 88 c0 150 -28 208 -119 250 -48 22 -73 26 -171 29 -75 2
-132 -2 -163 -11z m304 -119 c40 -20 59 -52 59 -97 l0 -30 -210 0 -210 0 0 43
c0 49 25 81 76 97 50 16 244 7 285 -13z"/>
<path d="M6310 1925 l0 -185 35 0 35 0 0 75 0 75 300 0 300 0 0 35 0 35 -300
0 -300 0 0 75 0 75 -35 0 -35 0 0 -185z"/>
<path d="M6070 2015 l0 -85 -195 0 -195 0 0 -40 0 -40 230 0 230 0 0 125 0
125 -35 0 -35 0 0 -85z"/>
<path d="M7362 1800 c-79 -11 -145 -42 -174 -82 -23 -33 -35 -117 -24 -162 9
-35 53 -84 96 -106 87 -44 316 -45 415 -1 83 37 118 115 95 211 -22 91 -101
134 -265 144 -44 2 -108 1 -143 -4z m261 -121 c73 -20 87 -92 24 -126 -27 -15
-57 -18 -184 -18 -138 0 -154 2 -180 21 -50 38 -44 93 14 117 45 19 266 23
326 6z"/>
<path d="M6633 1697 l-323 -81 0 -48 c0 -26 2 -48 4 -48 5 0 629 -150 649
-156 16 -5 18 -1 15 32 l-3 38 -102 24 -103 23 0 88 0 88 105 23 105 24 0 38
c0 24 -5 38 -12 37 -7 -1 -158 -37 -335 -82z m67 -127 c0 -50 -4 -70 -12 -69
-7 0 -78 15 -158 33 l-145 33 100 23 c55 12 123 28 150 35 28 7 53 14 58 14 4
1 7 -30 7 -69z"/>
<path d="M5680 1715 l0 -45 230 0 230 0 0 45 0 45 -230 0 -230 0 0 -45z"/>
<path d="M3333 1650 c-62 -28 -85 -70 -81 -147 4 -56 8 -67 38 -98 47 -49 118
-68 245 -69 123 0 187 17 231 60 83 84 42 232 -74 264 -53 14 -52 15 -52 -40
0 -43 3 -50 19 -50 11 0 32 -10 47 -23 31 -27 29 -63 -6 -85 -31 -19 -155 -33
-229 -26 -89 9 -129 26 -137 60 -9 35 5 57 44 69 30 9 32 12 32 57 0 56 -9 59
-77 28z"/>
<path d="M4842 1645 c-52 -23 -72 -78 -72 -200 0 -109 20 -173 58 -194 29 -16
84 -14 109 4 19 13 22 13 27 0 3 -8 12 -15 21 -15 13 0 15 18 15 115 l0 116
-57 -3 c-44 -2 -58 -7 -58 -18 0 -10 12 -16 39 -18 l39 -3 -7 -57 c-8 -64 -27
-92 -66 -92 -38 0 -58 27 -71 95 -20 110 8 229 57 241 33 8 55 -4 72 -39 14
-29 52 -37 52 -12 0 32 -30 73 -61 84 -41 14 -57 13 -97 -4z"/>
<path d="M3950 1444 l0 -205 23 3 c21 3 22 8 25 101 l3 97 64 0 c58 0 65 2 65
20 0 18 -7 20 -65 20 l-65 0 0 65 0 65 70 0 c63 0 70 2 70 20 0 19 -7 20 -95
20 l-95 0 0 -206z"/>
<path d="M4233 1623 c-53 -208 -89 -370 -82 -377 18 -20 39 6 51 63 l12 61 56
0 57 0 14 -62 c12 -52 18 -64 37 -66 13 -2 22 2 22 10 0 7 -22 99 -49 203
l-48 190 -31 3 c-27 3 -32 -1 -39 -25z m58 -105 c27 -105 26 -108 -21 -108
-23 0 -40 5 -40 11 0 21 34 178 38 174 2 -2 12 -36 23 -77z"/>
<path d="M4380 1630 c0 -17 7 -20 45 -20 l45 0 0 -186 0 -185 23 3 c22 3 22 5
25 186 l2 182 45 0 c38 0 45 3 45 20 0 19 -7 20 -115 20 -108 0 -115 -1 -115
-20z"/>
<path d="M4652 1448 c3 -202 3 -203 26 -206 l22 -3 0 205 0 206 -25 0 -25 0 2
-202z"/>
<path d="M5070 1491 c0 -90 5 -172 11 -190 19 -53 96 -77 164 -51 45 17 55 61
55 240 l0 160 -25 0 -25 0 0 -169 c0 -189 -4 -201 -65 -201 -58 0 -65 21 -65
207 l0 163 -25 0 -25 0 0 -159z"/>
<path d="M5380 1445 l0 -205 94 0 c91 0 106 5 106 36 0 2 -33 4 -73 4 -41 0
-76 2 -78 4 -2 2 -3 38 -1 80 l4 76 64 0 c57 0 64 2 64 20 0 18 -7 20 -64 20
l-64 0 -4 65 -3 65 73 0 c65 0 72 2 72 20 0 19 -7 20 -95 20 l-95 0 0 -205z"/>
<path d="M8593 1633 c-39 -8 -80 -58 -92 -113 -21 -97 -6 -211 32 -256 28 -32
85 -41 126 -21 17 9 31 11 31 6 0 -5 14 -9 30 -9 l30 0 0 110 0 110 -65 0 -65
0 0 -30 c0 -27 3 -30 31 -30 31 0 32 0 25 -42 -9 -53 -23 -70 -55 -66 -41 5
-52 40 -49 150 3 84 6 100 24 119 27 26 61 18 74 -17 8 -19 17 -24 46 -24 34
0 36 1 29 28 -11 46 -33 71 -72 81 -39 11 -42 11 -80 4z"/>
<path d="M5945 1580 c-104 -27 -207 -54 -228 -60 l-38 -11 3 -56 3 -57 228
-57 227 -57 0 44 c0 41 -2 43 -37 53 -21 6 -46 11 -55 11 -15 0 -18 10 -18 59
0 65 -1 64 73 77 37 6 37 6 37 55 0 27 -1 49 -2 48 -2 0 -88 -23 -193 -49z m5
-129 l0 -38 -85 17 c-47 10 -88 20 -91 22 -5 5 123 35 159 37 13 1 17 -7 17
-38z"/>
<path d="M7910 1435 l0 -195 35 0 35 0 0 138 1 137 51 -137 51 -138 44 0 43 0
0 195 0 195 -35 0 -35 0 0 -132 -1 -133 -51 133 -50 132 -44 0 -44 0 0 -195z"/>
<path d="M8240 1435 l0 -195 104 0 c102 0 104 0 108 25 3 13 3 27 0 30 -3 3
-36 5 -74 5 l-68 0 0 55 0 55 65 0 65 0 0 30 0 30 -65 0 -65 0 0 50 0 50 70 0
70 0 0 30 0 30 -105 0 -105 0 0 -195z"/>
<path d="M8875 1608 c-3 -13 -23 -96 -45 -186 -22 -89 -40 -167 -40 -172 0 -6
15 -10 34 -10 33 0 35 2 46 51 l12 50 47 -3 46 -3 9 -47 c9 -48 10 -48 49 -48
36 0 39 2 33 23 -3 12 -24 100 -47 195 l-42 172 -49 0 c-41 0 -48 -3 -53 -22z
m71 -130 c7 -35 13 -66 14 -70 0 -5 -15 -8 -34 -8 l-33 0 15 75 c8 42 17 73
20 71 2 -3 10 -33 18 -68z"/>
<path d="M9044 1615 c-12 -30 4 -45 46 -45 l40 0 0 -165 0 -165 40 0 40 0 0
165 0 165 40 0 c38 0 40 2 40 30 l0 30 -120 0 c-98 0 -122 -3 -126 -15z"/>
<path d="M9330 1435 l0 -195 40 0 40 0 0 195 0 195 -40 0 -40 0 0 -195z"/>
<path d="M9450 1618 c0 -7 22 -94 48 -193 l47 -180 45 0 45 0 47 180 c26 99
48 186 48 193 0 7 -14 12 -35 12 -28 0 -36 -5 -40 -22 -3 -13 -18 -81 -34
-153 -16 -71 -31 -123 -34 -115 -3 8 -18 77 -33 153 l-28 137 -38 0 c-24 0
-38 -5 -38 -12z"/>
<path d="M9770 1435 l0 -196 108 3 107 3 3 28 3 27 -75 0 -76 0 0 55 0 54 68
3 c65 3 67 4 70 30 3 27 3 27 -65 30 l-68 3 0 45 0 45 68 3 c67 3 67 3 67 32
l0 30 -105 0 -105 0 0 -195z"/>
<path d="M7362 1340 c-79 -11 -145 -42 -174 -82 -23 -33 -35 -117 -24 -162 10
-38 56 -87 104 -108 93 -42 313 -41 408 1 80 36 117 117 94 211 -22 91 -101
134 -265 144 -44 2 -108 1 -143 -4z m261 -121 c73 -19 87 -92 24 -126 -27 -15
-57 -18 -184 -18 -138 0 -154 2 -180 21 -46 34 -44 91 4 114 59 28 241 32 336
9z"/>
<path d="M5680 1160 l0 -130 230 0 230 0 0 45 0 45 -100 0 -100 0 0 80 0 80
-35 0 -35 0 0 -80 0 -80 -60 0 -60 0 0 85 0 85 -35 0 -35 0 0 -130z"/>
<path d="M6427 1276 c-65 -18 -103 -57 -118 -120 -15 -68 0 -125 45 -168 56
-54 113 -70 265 -76 186 -6 289 19 340 84 43 54 39 148 -8 195 l-28 27 29 6
c22 4 28 11 28 31 l0 25 -185 0 -185 0 0 -90 0 -90 35 0 35 0 0 56 0 57 83 -5
c49 -3 95 -11 114 -21 68 -36 63 -136 -10 -170 -78 -38 -276 -45 -395 -15 -23
6 -56 23 -72 38 -59 55 -30 151 50 166 27 6 30 10 30 45 0 22 -1 39 -2 38 -2
0 -25 -6 -51 -13z"/>
<path d="M3260 1210 l0 -50 270 0 270 0 0 50 0 50 -270 0 -270 0 0 -50z"/>
<path d="M3260 1025 l0 -45 183 0 182 -1 -180 -67 -180 -67 -3 -58 -3 -57 271
0 270 0 0 45 0 45 -192 0 -193 1 80 28 c44 16 130 47 190 69 l110 40 0 53 0
54 -267 3 -268 2 0 -45z"/>
<path d="M7170 791 l0 -79 200 -38 c109 -21 198 -40 196 -42 -2 -1 -84 -16
-182 -33 -99 -16 -187 -32 -196 -35 -15 -5 -18 -18 -18 -85 l0 -79 300 0 300
0 0 51 0 52 -250 -5 c-138 -3 -249 -4 -247 -2 1 1 104 19 227 39 124 19 235
38 248 41 21 4 23 10 20 52 l-3 47 -110 22 c-60 12 -171 33 -245 45 l-135 23
248 3 247 2 0 50 0 50 -300 0 -300 0 0 -79z"/>
<path d="M6910 721 l0 -121 -125 0 -125 0 0 110 0 110 -35 0 -35 0 0 -110 0
-110 -105 0 -105 0 0 115 0 115 -35 0 -36 0 3 -152 3 -153 333 -3 333 -2 -3
157 -3 158 -32 3 -33 3 0 -120z"/>
<path d="M3645 649 c-66 -16 -180 -43 -252 -60 l-133 -31 0 -63 c0 -52 3 -65
18 -69 36 -10 501 -116 511 -116 16 0 14 90 -1 95 -7 2 -39 9 -71 15 l-58 12
3 61 3 62 68 14 67 14 0 49 c0 57 9 57 -155 17z m-69 -196 c-4 -4 -132 18
-196 34 -18 5 6 12 85 28 l110 22 3 -40 c2 -21 1 -41 -2 -44z"/>
<path d="M6312 358 l3 -33 267 1 c147 0 266 -1 265 -2 -1 -1 -122 -50 -269
-109 l-268 -107 0 -44 0 -44 335 0 335 0 0 36 0 36 -280 -4 c-154 -2 -280 -3
-280 -2 0 0 126 49 280 110 l280 109 0 43 0 42 -336 0 -335 0 3 -32z"/>
<path d="M3345 307 c-16 -8 -41 -27 -55 -42 -23 -25 -25 -35 -28 -146 l-4
-119 271 0 271 0 0 50 0 50 -109 0 -108 0 -6 58 c-6 69 -26 112 -63 137 -35
23 -130 30 -169 12z m135 -107 c13 -13 20 -33 20 -60 l0 -40 -86 0 -87 0 6 42
c4 27 14 49 27 60 31 25 95 23 120 -2z"/>
</g>
</svg>
