<?xml version="1.0" standalone="no"?>
<svg xmlns="http://www.w3.org/2000/svg" viewBox="0 0 65 75" width="65" height="75"><g fill="#fea701" color="#fea701" transform="translate(10.172 0) scale(0.44) "><svg width="100.0" height="100.0" x="0.0" y="0.0" viewBox="0 0 100 100"><style type="text/css">
	.st0{fill:none;}
</style><g><path d="M86.3,45.9c0,2.7,0,5.3,0,8c0.4,0,0.8,0.1,1.2,0.1c2.5,0,5,0,7.5,0c2,0,3.3,1.2,3.3,3c0,1.8-1.2,3-3.3,3   c-2.9,0-5.7,0-8.7,0c0,2.7,0,5.3,0,8c0.3,0,0.7,0.1,1,0.1c2.6,0,5.1,0,7.7,0c2,0,3.3,1.2,3.3,3c0,1.8-1.3,3-3.3,3   c-2.9,0-5.7,0-8.8,0c0,1,0,1.9,0,2.8c0,1.2,0,2.3,0,3.5c-0.1,3.3-2.7,5.8-6,5.8c-2,0-3.9,0-6,0c0,0.5-0.1,0.9-0.1,1.2   c0,2.6,0,5.1,0,7.7c0,2-1.2,3.2-3,3.2c-1.8,0-3-1.2-3-3.2c0-2.9,0-5.8,0-8.8c-2.7,0-5.3,0-8,0c0,0.4-0.1,0.7-0.1,1.1   c0,2.5,0,5,0,7.4c0,2.2-1.1,3.4-3,3.4c-2,0-3.1-1.2-3.1-3.5c0-2.5,0-5,0-7.4c0-0.3,0-0.7,0-1.1c-2.7,0-5.3,0-8,0   c0,0.4-0.1,0.8-0.1,1.2c0,2.4,0,4.8,0,7.2c0,2.4-1,3.6-3,3.6c-2,0-3-1.2-3-3.6c0-2.8,0-5.5,0-8.4c-2.7,0-5.3,0-8,0   c0,0.3-0.1,0.6-0.1,0.9c0,2.6,0,5.2,0,7.8c0,2.1-1.2,3.3-3,3.3c-1.9,0-3-1.2-3-3.3c0-2.9,0-5.7,0-8.8c-0.7,0-1.3,0-2,0   c-1.3,0-2.6,0-3.9,0c-3.7,0-6.2-2.5-6.3-6.2c0-1.9,0-3.8,0-5.9c-0.5,0-0.8,0-1.2,0c-2.6,0-5.1,0-7.7,0c-1.9,0-3.2-1.2-3.2-3   c0-1.8,1.3-3,3.2-3c2.6,0,5.1,0,7.7,0c0.4,0,0.7,0,1.2,0c0-1.4,0-2.7,0-4.1c0-1.3,0-2.6,0-4c-0.8,0-1.4,0-2.1,0c-2.3,0-4.5,0-6.8,0   c-1.9,0-3.1-1.2-3.1-3c0-1.8,1.2-3.1,3.1-3.1c2.9,0,5.8,0,8.8,0c0-2.7,0-5.3,0-8.1c-2.2,0-4.3,0-6.5,0c-0.8,0-1.6,0-2.4,0   c-1.9,0-3.1-1.2-3.1-3c0-1.7,1.2-3,3.1-3c2.6,0,5.2,0,7.8,0c0.4,0,0.7,0,1.1,0c0-2.7,0-5.3,0-8c-1.6,0-3.3,0-4.9,0   c-1.3,0-2.6,0-3.9,0c-1.9,0-3.2-1.3-3.2-3.1c0-1.8,1.2-2.9,3.1-3c2.9,0,5.8,0,8.8,0c0-0.4,0.1-0.8,0.1-1.2c0-1.8,0-3.6,0.1-5.4   c0.2-3.1,2.7-5.4,5.8-5.5c2,0,4.1,0,6.2,0c0-1.7,0-3.3,0-4.9c0-1.4,0-2.7,0-4.1c0-1.9,1.2-3.1,3-3.1c1.8,0,3,1.2,3.1,3.2   c0,2.4,0,4.9,0,7.3c0,0.5,0,0.9,0,1.5c2.7,0,5.3,0,8,0c0-3,0-5.9,0-8.8c0-1.8,1.1-3.1,2.7-3.2c2-0.1,3.3,1.1,3.3,3.1   c0,2.6,0,5.2,0,7.8c0,0.4,0,0.7,0,1.1c2.7,0,5.3,0,8.1,0c0-1.5,0-3,0-4.5c0-1.5,0-3.1,0-4.6c0.1-1.5,1.1-2.6,2.4-2.8   c1.6-0.3,2.9,0.4,3.4,1.8C60,4,60,4.6,60,5.2c0,2.8,0,5.5,0,8.4c2.7,0,5.3,0,8.1,0c0-2.6,0-5.1,0-7.6c0-0.5,0-0.9,0-1.4   c0.1-1.8,1.2-3,3-3c1.7,0,3,1.2,3,2.9c0,2.6,0,5.2,0,7.8c0,0.4,0,0.8,0,1.4c1,0,1.9,0,2.8,0c1.2,0,2.3,0,3.4,0   c3.2,0.1,5.7,2.6,5.8,5.8c0.1,2,0,4,0,6.1c0.5,0,0.8,0.1,1.2,0.1c2.6,0,5.2,0,7.9,0c1.6,0,2.7,1,3,2.3c0.3,1.6-0.4,3-1.8,3.5   c-0.5,0.2-1.1,0.2-1.7,0.2c-2.4,0-4.9,0-7.3,0c-0.4,0-0.7,0-1.2,0c0,1.4,0,2.7,0,4c0,1.3,0,2.6,0,4c0.4,0,0.8,0.1,1.2,0.1   c2.6,0,5.1,0,7.7,0c1.9,0,3.2,1.2,3.2,3c0,1.8-1.3,3-3.2,3C92.3,45.9,89.4,45.9,86.3,45.9z M37.7,71.7c1-0.5,2.3-0.3,3.2,0.9   c0.8,1,1.6,1.2,2.7,0.8c0.9-0.3,1.8-0.6,2.7-0.8c3.2-1,3.1-1,3-4.4c0-0.7-0.3-1.1-1-1c-1.6,0-3.1,0.1-4.2,1.4   c-0.2,0.3-0.5,0.5-0.8,0.6c-0.3,0.1-0.8,0-1.1-0.1c-0.1-0.1-0.1-0.7,0.1-0.9c0.7-1.3,1.8-2.1,3.3-2.3c0.9-0.1,1.8-0.2,2.7-0.2   c0.8,0,1.2-0.3,1.1-1.1c-0.1-1.2-0.1-2.4-0.2-3.7c-0.2-1.9-1-2.7-3-2.6c-1.2,0.1-2.3,0.4-3.5,0.7c-1.3,0.3-2.5,0.3-3.4-0.7   c-0.7-0.9-1.3-1.9-1.9-2.9c-0.1-0.2,0-0.9,0.2-1c0.2-0.1,0.8-0.1,1,0.1c0.4,0.4,0.7,0.9,1,1.4c0.8,1.4,1.5,1.8,3,1.3   c2.1-0.8,4.2-1.1,6.4-0.1c0,0,0.1,0,0.2-0.1c0-1.5,0-3.1,0-4.8c-0.5,0.4-0.9,0.6-1.2,0.8c-1.9,1.2-3.2,1.2-4.9-0.2   c-0.5-0.4-1.1-0.9-1.5-1.4c-1-1-2.1-1.3-3.5-1.2c-1.1,0.1-2.3,0.3-3.4,0c-2-0.5-3.9-0.5-5.8,0.1c-2,0.6-4,1.1-6.1,1.6   c0.2,1.8,0.5,3.4,0.7,5.2c0.9-0.3,1.6-0.6,2.4-0.7c0.8,0,1.5,0.3,2.3,0.4c0.8,0.1,1-0.4,1.2-1.1c0.4-2.1,2.8-3,4.4-1.5   c1.4,1.3,1.9,2.9,1.9,4.7c0,1-0.5,1.8-1.4,2.2c-1.2,0.6-2.4,1.2-3.6,1.8c-0.7,0.3-1.4,0.5-2-0.1c1.2-1.6,2.6-2.8,4.7-2.9   c0.3,0,0.9-0.7,0.9-1.1c0-1.5-0.6-2.9-1.7-3.9c-0.5-0.5-1-0.5-1.2,0.3c-0.2,0.6-0.4,1.2-0.5,1.7c-0.4,1.4-1.1,1.8-2.5,1.5   c-0.4-0.1-0.7-0.2-1-0.3c-2-0.5-2.5-0.1-2.4,1.9c0,0.3,0,0.6,0.1,0.9c0.9,3.4,2.6,6.3,4.9,8.9c0,0,0.1,0,0.2,0   c0.1-0.2,0.2-0.5,0.2-0.7c0.5-2.7,1.4-3.3,4.1-3.2c0.1,0,0.3,0,0.4,0c1.4,0.1,2.5-0.3,3.1-1.7c0.4-1,1.2-1.6,2.3-1.8   c1-0.2,2-0.4,3.1-0.5c0.3,0,0.7,0,1.1,0.1c0.3,0.1,0.6,0.4,0.6,0.6c0,0.2-0.3,0.5-0.6,0.6c-0.7,0.2-1.4,0.3-2.1,0.5   c-1,0.4-2.2,0.6-2.7,1.3c-1.3,1.8-2.9,2.6-5.2,2.3c-1.8-0.2-2.7,0.7-2.8,2.6c-0.1,1.9,0.8,3.4,2.2,4.6c2.1,1.9,4.5,3.5,7.1,4.6   c1.7,0.7,3.5,1.1,5.4,0.9c2.3-0.2,3-0.9,3.2-3.2c0.1-0.6,0.1-1.1,0.1-1.7c0-2-0.8-2.5-2.6-1.5c-1.1,0.6-2.1,1.2-3.2,1.7   c-1,0.4-2,0.4-2.8-0.5C39.7,73.9,38.7,72.8,37.7,71.7z M63.2,72.1c-1.9,0.2-2.7,1.6-3.8,2.8c-1,1.1-2.1,1.3-3.4,0.5   c-0.6-0.3-1.1-0.7-1.6-1c-0.7-0.4-1.3-0.8-2-0.9c-0.4-0.1-1.3,0.4-1.3,0.7c-0.7,3.2-0.2,6.1,3.7,6c5.3-0.2,9.8-2.4,13.1-6.7   c0.8-1.1,1.1-2.4,1-3.8c-0.2-1.5-0.8-2.1-2.3-2c-0.7,0-1.4,0.2-2.1,0.2c-1.2,0.1-2.2-0.4-2.6-1.5c-0.7-1.7-2-2.4-3.7-2.5   c-0.5,0-1,0-1.5-0.3c-0.4-0.2-0.8-0.7-1.1-1c0.5-0.3,1-0.8,1.5-0.7c2.3,0.2,4.4,0.9,5.6,3.1c0.5,1,1.4,1.3,2.5,1   c0.4-0.1,0.8-0.2,1.3-0.2c1.8-0.3,3,0.3,3.6,2.1c0.2,0.7,0.4,1.4,0.6,2.3c2.2-2.3,3.8-4.8,4.6-7.8c0.2-0.8,0.3-1.7,0.3-2.6   c0-1.2-0.6-1.6-1.8-1.3c-2.5,0.7-3.8-0.2-4.1-2.5c0-0.4-0.5-1.1-0.8-1.1c-0.5,0-1.2,0.3-1.4,0.7c-0.5,0.9-0.8,1.8-1,2.8   c-0.3,1.2-0.1,1.7,1.2,1.7c2,0.1,3.1,1.5,4.4,2.8c-0.8,0.7-1.5,0.5-2.2,0.1c-0.9-0.5-1.9-0.9-2.9-1.2c-1.4-0.4-2.2-1.2-2-2.6   c0.3-1.6,0.8-3.1,1.5-4.5c0.6-1.3,1.7-1.6,2.8-1.4c1.3,0.3,1.6,1.2,1.8,2.4c0.2,1.6,0.9,1.9,2.3,1.3c1.3-0.5,2.5-1.3,3.8,0.6   c0.2-1.9,0.4-3.4,0.6-4.9c0-0.5,0-0.9-0.7-0.8c-2.1,0.1-4.1-0.7-6-1.4c-1-0.3-2.1-0.4-3.2-0.3c-1.3,0.1-2.6,0.7-3.9,0.6   c-2.5-0.2-4.5,0.5-6.3,2.3c-1.6,1.6-3.6,1.5-5.4,0c-0.3-0.2-0.6-0.5-1-0.8c0,1.8,0,3.4,0,5.1c0.3-0.1,0.5,0,0.6-0.1   c1.7-1,3.5-0.7,5.2,0.1c0.3,0.1,0.7,0.2,1,0.3c1.3,0.3,1.9,0.1,2.5-1.1c0.3-0.5,0.6-1,0.9-1.5c0.5-0.6,1.1-0.8,1.8-0.2   c-0.5,0.8-0.9,1.6-1.4,2.4c-1,1.5-2.3,2.2-4.1,1.7c-0.9-0.2-1.9-0.5-2.8-0.6c-2.1-0.3-3.6,0.8-3.9,2.9c-0.1,1-0.2,1.9-0.1,2.9   c0,1.6,0.2,1.6,1.8,1.7c1.3,0,2.6,0.2,3.8,0.5c1,0.2,1.7,1,1.8,2.1c0.1,0.4-0.3,0.9-0.4,1.3c-0.3-0.2-0.8-0.3-1-0.5   c-1.3-1.9-3.1-1.9-5.1-1.8c-0.2,0-0.6,0.3-0.6,0.5c-0.1,1.3,0,2.6,0,4c0.8,0,1.5,0,2.2,0.1c0.7,0.1,1.3,0.4,1.9,0.7   c2.8,1.6,2.9,1.6,5-0.8C60.9,70.8,62.1,70.9,63.2,72.1z M49.1,36.9c-2,0.7-2.4,0.8-4.4,0.4c-0.5-0.1-1-0.2-1.5-0.3   c-2.2-0.4-3.7,0.6-4.4,2.9c-0.7,2.1,0.1,3.8,2,4.7c0.9,0.4,1.8,0.6,2.8,0.9c1.2,0.4,1.4,1,0.6,2.1c-1.3-0.5-2.6-0.9-3.9-1.4   c-2.6-1-4-4-3.3-6.9c0.6-2.5,3.3-4.4,6-4.1c0.8,0.1,1.5,0.3,2.3,0.5c2.3,0.5,3.7-0.6,3.8-2.9c0.1-1.6,0-3.2,0.1-4.7   c0-0.7-0.2-1.1-0.9-1.3c-1.9-0.6-3.5-1.9-5.7-1.6c0.3-0.4,0.6-0.8,0.9-0.8c1-0.1,2-0.1,2.9,0.1c0.9,0.2,1.7,0.6,2.9,1   c-0.1-1.4,0-2.6-0.3-3.7c-0.1-0.6-0.7-1.3-1.2-1.5c-2.8-0.7-5.6-0.8-8.2,0.6c-0.6,0.3-1.3,1.3-1.3,1.9c0,1.8,0.2,3.6,0.5,5.3   c0.2,1,0.9,1.7,2,1.7c1.4,0.1,2.9,0.1,4.3,0.2c0.3,0,0.6,0.3,1,0.5c-0.2,0.3-0.4,0.8-0.7,0.8c-1,0.2-2.1,0.4-3.2,0.4   c-3.6-0.2-4.2-0.8-4.8-4.3c-0.3-1.6-0.5-3.2-0.8-5.1c-1.2,1.1-2.3,1.9-3.1,2.8c-0.4,0.5-0.7,1.4-0.6,1.9c0.3,1.3,0.9,2.6,1.5,3.9   c0.5,1.1,1.3,2.1,1.7,3.2c0.7,1.8,0.4,3.5-0.9,4.9c-1.2,1.4-2.8,1.3-4.4,0.9c-1.3-0.3-2.5-0.7-3.8-0.9c-1-0.2-2-0.1-2.8,0.8   c-1,1.2-1.2,2.7-1.4,4.4c1.2-0.3,2.2-0.5,3.2-0.8c2.3-0.7,4.6-0.5,6.8-0.3c0.4,0,0.7,0.4,1.1,0.7c-0.3,0.3-0.7,0.7-1.1,0.7   c-1,0.1-2,0.1-3,0.1c-0.7,0-1.5-0.2-2.2,0c-1.7,0.4-3.3,0.9-4.9,1.4c0,1.2,0,2.5,0,3.9c2.4-0.5,4.6-0.9,6.8-1.5   c1.5-0.4,3-0.5,4.6-0.2c1.1,0.2,2.3,0.4,3.4,0.3c2.2,0,4,0.5,5.4,2.3c1.2,1.5,3.3,1.6,4.6,0.2c0.7-0.7,1.3-1.8,1.5-2.8   c0.2-1.6,0.1-3.3,0-4.9c0-0.2-0.4-0.6-0.7-0.7c-1.1-0.2-2.2-0.3-3.3-0.4c-0.7-0.1-1.4-0.2-1.3-1c0.2-0.8,0.9-0.7,1.6-0.6   c0.8,0.2,1.6,0.4,2.4,0.5c0.6,0.1,1.2-0.1,1.3-0.8C49.1,39.3,49.1,38.2,49.1,36.9z M77.4,44.5c-0.4-1.4-0.6-2.5-0.9-3.5   c-0.5-1.4-1.5-2-3.1-1.8c-1,0.1-2,0.5-3.1,0.6c-1.2,0.2-2.5,0.5-3.7,0.4c-2.1-0.1-3.1-1.4-2.8-3.4c0.2-1.5,0.7-2.9,1.3-4.3   c0.5-1.3,1.3-2.6,1.8-3.9c0.9-2.3-0.7-5-3.1-5.6c-0.4,2-0.7,4.1-1.1,6.1c-0.4,1.7-1.7,2.6-3.5,2.6c-1.1,0-2.2,0.1-3.3,0.2   c-0.6,0-1.3,0-1.9-0.2c-0.2-0.1-0.5-0.7-0.4-0.9c0.1-0.2,0.6-0.4,0.9-0.5c0.8-0.1,1.7-0.1,2.6-0.1c0.7,0,1.5-0.2,2.2-0.1   c1.4,0,1.9-0.3,2-1.7c0.1-1.8,0.1-3.5,0.1-5.3c0-1.7-0.7-2.6-2.4-2.8c-1.6-0.2-3.1-0.4-4.7-0.3c-2.4,0.1-3.5,1.3-3.6,3.7   c-0.1,1.8,0.3,2.1,2,1.5c1.2-0.4,2.4-0.9,3.7-1.1c1.2-0.2,1.9,0.5,2.4,1.8c-0.5,0-1,0-1.4-0.1c-1.2-0.6-2.3-0.3-3.4,0.2   c-0.8,0.4-1.7,0.7-2.6,1.1c-0.2,0.1-0.5,0.4-0.5,0.7c0,1.8-0.1,3.5,0,5.3c0.2,2.5,2.3,3.7,4.6,2.8c0.7-0.3,1.5-0.5,2.3-0.4   c2.2,0.1,4.4,1.9,5.2,4.2c0.7,2.1,0.2,4.5-1.8,5.9c-1.4,1-3.1,1.5-4.8,2.1c-0.3,0.1-0.8-0.1-1.2-0.2c0.2-0.4,0.3-1,0.6-1.1   c0.7-0.4,1.6-0.7,2.4-0.9c2.4-0.6,3.5-2.4,2.9-4.8c-0.6-2.6-2.5-4-4.9-3.4c-1.8,0.4-3.5,1.2-5.4-0.2c-0.1,1.2-0.1,2.1-0.2,3   c-0.1,1.3,0.2,1.6,1.5,1.5c1-0.1,1.9-0.3,2.9-0.4c0.8-0.1,1.6,0.1,1.9,1.1c-1.9,1.2-4,1.1-6.1,1.1c0,1.5,0,3,0,4.4   c0,1.8,0.8,3.2,2.2,4.4c1.5,1.3,2.7,1.2,3.8-0.4c1.2-1.7,2.8-2.4,4.9-2.3c1.5,0,3.1-0.3,4.6-0.4c1.3-0.1,2.6-0.1,3.8,0   c1.2,0.2,2.3,0.7,3.5,1c1,0.3,2.1,0.4,3.4,0.7c0-1.3,0-2.4,0-3.4c0-0.7-0.2-0.9-0.8-1c-1.4-0.3-2.8-0.7-4.3-1c-0.6-0.1-1.4-0.1-2,0   c-1.4,0.3-2.7,0.1-3.9-0.5c-0.3-0.1-0.6-0.8-0.5-1c0.1-0.3,0.6-0.5,1-0.6c0.3-0.1,0.6,0.1,0.9,0.3c0.9,0.6,1.8,0.5,2.9,0.4   c0.9-0.2,1.9-0.1,2.8,0.1C74.7,43.7,75.9,44.1,77.4,44.5z M69.4,27.5c-0.1,0-0.2,0.1-0.4,0.1c-0.1,0.2-0.2,0.4-0.3,0.7   c-0.7,1.5-1.4,3.1-2.2,4.6c-0.4,0.8-0.8,1.5-1.1,2.3c-0.6,2.1,0.5,3.6,2.6,3.4c2.2-0.2,4.3-0.7,6.8-1.2C74.2,36.1,73.7,35,73,34   c-0.4-0.7-1.1-0.6-1.7-0.1c-0.3,0.3-0.6,0.8-1,1c-0.4,0.2-1,0.2-1.5,0.2c0.1-0.4,0-1,0.3-1.2c0.8-0.8,1.7-1.6,2.6-2.4   C71,30.2,70.2,28.8,69.4,27.5z M25.4,37.4c1,0.2,1.7,0.4,2.5,0.6c0.7,0.2,1.5,0.4,2.2,0.6c0.7,0.1,1.5,0.3,2.2,0.2   c1.8-0.1,2.8-1.4,2.3-3.2c-0.2-0.6-0.4-1.2-0.7-1.8c-1-2.1-2-4.1-3-6.2c0,0-0.1,0-0.3-0.1c-0.6,1-1.3,2-2,3   c-0.5,0.8-0.3,1.3,0.4,1.8c0.8,0.5,1.5,1.1,2.1,1.8c0.3,0.3,0.1,0.9,0.2,1.3c-0.5,0-1.1,0.2-1.5,0c-0.6-0.3-1.1-0.8-1.6-1.2   c-0.4-0.3-0.7-0.5-1.3-0.9C26.5,34.6,25.9,36,25.4,37.4z"></path><path class="st0" d="M37.7,71.7c1,1.2,2,2.3,3,3.4c0.8,0.9,1.8,1,2.8,0.5c1.1-0.5,2.1-1.2,3.2-1.7c1.8-1,2.5-0.5,2.6,1.5   c0,0.6,0,1.2-0.1,1.7c-0.2,2.3-0.9,3-3.2,3.2c-1.9,0.2-3.6-0.2-5.4-0.9c-2.6-1.1-5-2.7-7.1-4.6c-1.3-1.2-2.3-2.7-2.2-4.6   c0.1-1.9,1-2.8,2.8-2.6c2.3,0.3,3.8-0.4,5.2-2.3c0.5-0.7,1.8-0.9,2.7-1.3c0.7-0.2,1.4-0.3,2.1-0.5c0.2-0.1,0.6-0.4,0.6-0.6   c0-0.2-0.4-0.5-0.6-0.6C43.6,62,43.3,62,42.9,62c-1,0.1-2.1,0.3-3.1,0.5c-1,0.2-1.9,0.8-2.3,1.8c-0.6,1.4-1.7,1.8-3.1,1.7   c-0.1,0-0.3,0-0.4,0c-2.7-0.2-3.5,0.5-4.1,3.2c0,0.2-0.1,0.5-0.2,0.7c-0.1,0-0.2,0-0.2,0c-2.3-2.6-4-5.5-4.9-8.9   c-0.1-0.3-0.1-0.6-0.1-0.9c-0.1-2.1,0.4-2.5,2.4-1.9c0.3,0.1,0.7,0.2,1,0.3c1.4,0.3,2.1-0.1,2.5-1.5c0.2-0.6,0.3-1.2,0.5-1.7   c0.3-0.7,0.7-0.8,1.2-0.3c1.1,1.1,1.7,2.4,1.7,3.9c0,0.4-0.6,1.1-0.9,1.1c-2.1,0.1-3.5,1.3-4.7,2.9c0.6,0.6,1.3,0.4,2,0.1   c1.2-0.6,2.4-1.2,3.6-1.8c0.9-0.5,1.4-1.2,1.4-2.2c0.1-1.9-0.4-3.5-1.9-4.7c-1.6-1.4-4-0.6-4.4,1.5C29,56.5,28.8,57,28,56.9   c-0.8-0.1-1.6-0.4-2.3-0.4c-0.8,0-1.5,0.4-2.4,0.7c-0.2-1.7-0.5-3.4-0.7-5.2c2.1-0.5,4.1-1,6.1-1.6c1.9-0.6,3.8-0.7,5.8-0.1   c1.1,0.3,2.3,0.2,3.4,0c1.4-0.2,2.5,0.1,3.5,1.2c0.5,0.5,1,0.9,1.5,1.4c1.7,1.4,3.1,1.4,4.9,0.2c0.3-0.2,0.6-0.4,1.2-0.8   c0,1.7,0,3.3,0,4.8c-0.1,0-0.2,0.1-0.2,0.1c-2.1-1-4.2-0.7-6.4,0.1c-1.5,0.5-2.2,0.1-3-1.3c-0.3-0.5-0.6-1-1-1.4   c-0.2-0.2-0.8-0.3-1-0.1c-0.2,0.1-0.3,0.7-0.2,1c0.6,1,1.1,2,1.9,2.9c0.9,1,2.1,1,3.4,0.7c1.1-0.3,2.3-0.6,3.5-0.7   c2-0.1,2.8,0.7,3,2.6c0.1,1.2,0.1,2.4,0.2,3.7c0,0.8-0.3,1.1-1.1,1.1c-0.9,0-1.8,0.1-2.7,0.2c-1.5,0.2-2.6,1-3.3,2.3   C42,68.4,41.9,68.9,42,69c0.3,0.2,0.7,0.2,1.1,0.1c0.3-0.1,0.6-0.4,0.8-0.6c1.1-1.4,2.7-1.4,4.2-1.4c0.7,0,1,0.3,1,1   c0.2,3.3,0.2,3.3-3,4.4c-0.9,0.3-1.8,0.5-2.7,0.8c-1.1,0.4-2,0.2-2.7-0.8C40,71.4,38.7,71.1,37.7,71.7z"></path><path class="st0" d="M49.1,36.9c0,1.3,0,2.4,0,3.5c0,0.7-0.7,0.9-1.3,0.8c-0.8-0.1-1.6-0.3-2.4-0.5c-0.7-0.1-1.4-0.2-1.6,0.6   c-0.2,0.9,0.6,1,1.3,1c1.1,0.1,2.2,0.2,3.3,0.4c0.3,0.1,0.7,0.4,0.7,0.7c0.1,1.6,0.2,3.3,0,4.9c-0.1,1-0.7,2-1.5,2.8   c-1.3,1.4-3.4,1.3-4.6-0.2c-1.4-1.8-3.2-2.3-5.4-2.3c-1.1,0-2.3-0.1-3.4-0.3c-1.6-0.3-3-0.2-4.6,0.2c-2.2,0.5-4.4,1-6.8,1.5   c0-1.4,0-2.7,0-3.9c1.6-0.5,3.3-1,4.9-1.4c0.7-0.2,1.5,0,2.2,0c1,0,2,0,3-0.1c0.4,0,0.7-0.5,1.1-0.7c-0.4-0.2-0.7-0.7-1.1-0.7   c-2.3-0.2-4.6-0.4-6.8,0.3c-1,0.3-2,0.5-3.2,0.8c0.1-1.8,0.4-3.2,1.4-4.4c0.7-0.9,1.7-1,2.8-0.8c1.3,0.3,2.5,0.6,3.8,0.9   c1.6,0.4,3.2,0.5,4.4-0.9c1.3-1.4,1.5-3.2,0.9-4.9c-0.4-1.1-1.2-2.1-1.7-3.2c-0.6-1.3-1.2-2.5-1.5-3.9c-0.1-0.6,0.2-1.4,0.6-1.9   c0.9-1,1.9-1.8,3.1-2.8c0.3,1.9,0.5,3.5,0.8,5.1c0.6,3.6,1.2,4.2,4.8,4.3c1.1,0.1,2.1-0.2,3.2-0.4c0.3-0.1,0.5-0.5,0.7-0.8   c-0.3-0.2-0.6-0.5-1-0.5c-1.4-0.1-2.9-0.1-4.3-0.2c-1.1,0-1.9-0.7-2-1.7c-0.3-1.8-0.5-3.6-0.5-5.3c0-0.7,0.7-1.6,1.3-1.9   c2.6-1.4,5.4-1.3,8.2-0.6c0.5,0.1,1.1,0.9,1.2,1.5c0.3,1.1,0.2,2.2,0.3,3.7c-1.1-0.4-2-0.8-2.9-1c-1-0.2-2-0.1-2.9-0.1   c-0.3,0-0.6,0.4-0.9,0.8c2.2-0.3,3.8,1,5.7,1.6c0.7,0.2,0.9,0.6,0.9,1.3c-0.1,1.6,0,3.2-0.1,4.7c-0.1,2.3-1.5,3.3-3.8,2.9   c-0.8-0.2-1.5-0.4-2.3-0.5c-2.7-0.3-5.4,1.6-6,4.1c-0.7,2.8,0.7,5.8,3.3,6.9c1.3,0.5,2.6,0.9,3.9,1.4c0.8-1.1,0.6-1.7-0.6-2.1   c-0.9-0.3-1.9-0.5-2.8-0.9c-2-0.9-2.7-2.6-2-4.7c0.7-2.3,2.2-3.3,4.4-2.9c0.5,0.1,1,0.2,1.5,0.3C46.6,37.7,47,37.7,49.1,36.9z"></path><path class="st0" d="M25.4,37.4c0.6-1.4,1.1-2.7,1.7-4.2c0.6,0.4,1,0.7,1.3,0.9c0.5,0.4,1,0.9,1.6,1.2c0.4,0.2,1,0,1.5,0   c-0.1-0.5,0.1-1.1-0.2-1.3c-0.6-0.7-1.4-1.3-2.1-1.8c-0.8-0.5-0.9-1-0.4-1.8c0.7-1,1.3-2,2-3c0.2,0.1,0.3,0.1,0.3,0.1   c1,2.1,2,4.1,3,6.2c0.3,0.6,0.5,1.2,0.7,1.8c0.4,1.8-0.5,3.1-2.3,3.2c-0.7,0-1.5-0.1-2.2-0.2c-0.7-0.1-1.5-0.4-2.2-0.6   C27.1,37.8,26.4,37.6,25.4,37.4z"></path></g></svg></g><path fill="#fe4e01" fill-rule="nonzero" d="M6.05 22.27L3.34 22.27Q3.24 22.27 3.24 22.15L3.24 22.15L3.24 8.47L0.12 8.47Q0 8.47 0 8.35L0 8.35L0.02 5.66Q0.02 5.57 0.12 5.57L0.12 5.57L9.24 5.57Q9.36 5.57 9.36 5.66L9.36 5.66L9.36 8.35Q9.36 8.47 9.26 8.47L9.26 8.47L6.12 8.47L6.14 22.15Q6.14 22.27 6.05 22.27L6.05 22.27ZM13.34 22.27L10.63 22.27Q10.54 22.27 10.54 22.15L10.54 22.15L10.56 5.66Q10.56 5.57 10.68 5.57L10.68 5.57L13.34 5.57Q13.46 5.57 13.46 5.66L13.46 5.66L13.44 12.19L17.04 12.19L17.04 5.66Q17.04 5.57 17.14 5.57L17.14 5.57L19.80 5.57Q19.92 5.57 19.92 5.66L19.92 5.66L19.97 22.15Q19.97 22.27 19.85 22.27L19.85 22.27L17.16 22.27Q17.04 22.27 17.04 22.15L17.04 22.15L17.04 15.10L13.44 15.10L13.44 22.15Q13.44 22.27 13.34 22.27L13.34 22.27ZM26.38 22.51L26.38 22.51Q25.08 22.51 24.01 21.85Q22.94 21.19 22.30 20.10Q21.65 19.01 21.65 17.69L21.65 17.69L21.67 10.08Q21.67 8.76 22.31 7.68Q22.94 6.60 24.02 5.95Q25.10 5.30 26.38 5.30L26.38 5.30Q27.67 5.30 28.73 5.95Q29.78 6.60 30.42 7.68Q31.06 8.76 31.06 10.08L31.06 10.08L31.08 17.69Q31.08 19.01 30.44 20.10Q29.81 21.19 28.74 21.85Q27.67 22.51 26.38 22.51ZM26.38 19.61L26.38 19.61Q27.10 19.61 27.64 19.02Q28.18 18.43 28.18 17.69L28.18 17.69L28.15 10.08Q28.15 9.29 27.65 8.74Q27.14 8.18 26.38 8.18L26.38 8.18Q25.63 8.18 25.10 8.72Q24.58 9.26 24.58 10.08L24.58 10.08L24.58 17.69Q24.58 18.48 25.10 19.04Q25.63 19.61 26.38 19.61ZM27.31 4.34L24.91 4.34Q24.79 4.34 24.82 4.25L24.82 4.25L26.74 0.10Q26.76 0 26.86 0L26.86 0L29.59 0Q29.74 0 29.69 0.10L29.69 0.10L27.46 4.25Q27.41 4.34 27.31 4.34L27.31 4.34ZM35.71 22.27L33 22.27Q32.90 22.27 32.90 22.15L32.90 22.15L32.95 5.66Q32.95 5.57 33.05 5.57L33.05 5.57L35.98 5.57Q36.07 5.57 36.14 5.66L36.14 5.66L38.33 8.83L40.51 5.66Q40.58 5.57 40.68 5.57L40.68 5.57L43.63 5.57Q43.73 5.57 43.73 5.66L43.73 5.66L43.78 22.15Q43.78 22.27 43.68 22.27L43.68 22.27L40.97 22.27Q40.87 22.27 40.87 22.15L40.87 22.15L40.85 9.91L38.33 13.56L35.83 9.91L35.81 22.15Q35.81 22.27 35.71 22.27L35.71 22.27ZM44.98 22.15L44.98 22.15L47.95 5.66Q47.98 5.57 48.07 5.57L48.07 5.57L51.55 5.57Q51.65 5.57 51.67 5.66L51.67 5.66L54.53 22.15Q54.55 22.27 54.43 22.27L54.43 22.27L51.77 22.27Q51.67 22.27 51.65 22.15L51.65 22.15L51.38 20.40L48.12 20.40L47.86 22.15Q47.83 22.27 47.74 22.27L47.74 22.27L45.07 22.27Q44.98 22.27 44.98 22.15ZM49.68 11.09L48.60 17.83L50.90 17.83L49.92 11.09L49.78 10.20L49.68 11.09ZM59.64 22.51L59.64 22.51Q58.34 22.51 57.28 21.85Q56.21 21.19 55.57 20.10Q54.94 19.01 54.94 17.69L54.94 17.69L54.94 16.58Q54.94 16.46 55.06 16.46L55.06 16.46L57.74 16.46Q57.84 16.46 57.84 16.58L57.84 16.58L57.84 17.69Q57.84 18.48 58.37 19.04Q58.90 19.61 59.64 19.61L59.64 19.61Q60.38 19.61 60.91 19.03Q61.44 18.46 61.44 17.69L61.44 17.69Q61.44 16.80 60.29 16.15L60.29 16.15Q59.90 15.94 59.09 15.48Q58.27 15.02 57.55 14.62L57.55 14.62Q56.23 13.85 55.60 12.68Q54.96 11.52 54.96 10.06L54.96 10.06Q54.96 8.71 55.61 7.64Q56.26 6.58 57.32 5.95Q58.39 5.33 59.64 5.33L59.64 5.33Q60.91 5.33 61.98 5.96Q63.05 6.60 63.68 7.67Q64.32 8.74 64.32 10.06L64.32 10.06L64.32 12.02Q64.32 12.12 64.22 12.12L64.22 12.12L61.54 12.12Q61.44 12.12 61.44 12.02L61.44 12.02L61.42 10.06Q61.42 9.22 60.89 8.69Q60.36 8.16 59.64 8.16L59.64 8.16Q58.90 8.16 58.37 8.72Q57.84 9.29 57.84 10.06L57.84 10.06Q57.84 10.85 58.18 11.38Q58.51 11.90 59.40 12.38L59.40 12.38Q59.52 12.46 59.87 12.64Q60.22 12.82 60.62 13.04Q61.03 13.27 61.36 13.44Q61.68 13.61 61.75 13.66L61.75 13.66Q62.95 14.33 63.65 15.30Q64.34 16.27 64.34 17.69L64.34 17.69Q64.34 19.06 63.71 20.15Q63.07 21.24 62.00 21.88Q60.94 22.51 59.64 22.51Z" transform="translate(0, 52)"></path></svg>